<?xml version="1.0" standalone="no"?>
<!DOCTYPE svg PUBLIC "-//W3C//DTD SVG 1.1//EN" "http://www.w3.org/Graphics/SVG/1.1/DTD/svg11.dtd" >
<svg xmlns="http://www.w3.org/2000/svg" xmlns:xlink="http://www.w3.org/1999/xlink" version="1.1">
<metadata>
Created by FontForge 20170731 at Thu May 17 02:34:10 2012
 By Aleksey,,,
Copyright (c) 2012 by The Fontry. All rights reserved.
</metadata>
<defs>
<font id="AvengeanceHeroicAvengerBold" horiz-adv-x="773" >
  <font-face 
    font-family="Avengeance Heroic Avenger"
    font-weight="700"
    font-stretch="normal"
    units-per-em="1000"
    panose-1="0 0 0 0 0 0 0 0 0 0"
    ascent="800"
    descent="-200"
    x-height="727"
    cap-height="1029"
    bbox="-232 -334 3509 1030"
    underline-thickness="50"
    underline-position="-200"
    unicode-range="U+0020-F8FF"
  />
<missing-glyph horiz-adv-x="125" 
 />
    <glyph glyph-name=".notdef" horiz-adv-x="125" 
 />
    <glyph glyph-name=".null" horiz-adv-x="0" 
 />
    <glyph glyph-name="nonmarkingreturn" horiz-adv-x="333" 
 />
    <glyph glyph-name="space" unicode=" " horiz-adv-x="125" 
 />
    <glyph glyph-name="exclam" unicode="!" horiz-adv-x="219" 
d="M107 182l126 545h183l-198 -545h-111zM40 0l41 138h143l-42 -138h-142z" />
    <glyph glyph-name="quotedbl" unicode="&#x22;" horiz-adv-x="357" 
d="M410 727h145l-127 -304h-86zM232 727h146l-128 -304h-86z" />
    <glyph glyph-name="numbersign" unicode="#" 
d="M386 3q-146 0 -249.5 104t-103.5 250t103.5 250t249.5 104t250 -104t104 -250t-104 -250t-250 -104zM386 51q127 0 216 90t89 216t-89 215.5t-216 89.5q-126 0 -216 -89.5t-90 -215.5t90 -216t216 -90zM386 72q-117 0 -201 83.5t-84 201.5q0 117 84 199.5t201 82.5
t200.5 -82.5t83.5 -199.5q0 -118 -83.5 -201.5t-200.5 -83.5zM386 116q53 0 93.5 32t66.5 75q-156 -41 -320 0q26 -43 66.5 -75t93.5 -32zM216 238q169 -39 341 0l54 86h-450zM349 357h76l-38 91zM294 427q3 -4 18.5 3.5t14.5 10.5q-7 14 -22 54t-27 58q-4 5 -19.5 -2.5
t-28 -18t-10.5 -13.5zM480 427l72 92q2 3 -10.5 13.5t-27.5 18t-19 2.5q-11 -14 -19 -33t-15 -42.5t-13 -36.5q-3 -2 9 -9q17 -10 23 -5zM645 12v38h-15v11h41v-11h-15v-38h-11zM676 12v49h15l9 -38l9 38h14v-49h-9v38l-10 -38h-9l-10 38v-38h-9z" />
    <glyph glyph-name="dollar" unicode="$" 
d="M386 3q-146 0 -249.5 104t-103.5 250t103.5 250t249.5 104t250 -104t104 -250t-104 -250t-250 -104zM386 51q127 0 216 90t89 216t-89 215.5t-216 89.5q-126 0 -216 -89.5t-90 -215.5t90 -216t216 -90zM386 72q-117 0 -201 83.5t-84 201.5q0 117 84 199.5t201 82.5
t200.5 -82.5t83.5 -199.5q0 -118 -83.5 -201.5t-200.5 -83.5zM386 116q53 0 93.5 32t66.5 75q-156 -41 -320 0q26 -43 66.5 -75t93.5 -32zM216 238q169 -39 341 0l54 86h-450zM349 357h76l-38 91zM294 427q3 -4 18.5 3.5t14.5 10.5q-7 14 -22 54t-27 58q-4 5 -19.5 -2.5
t-28 -18t-10.5 -13.5zM480 427l72 92q2 3 -10.5 13.5t-27.5 18t-19 2.5q-11 -14 -19 -33t-15 -42.5t-13 -36.5q-3 -2 9 -9q17 -10 23 -5zM645 12v38h-15v11h41v-11h-15v-38h-11zM676 12v49h15l9 -38l9 38h14v-49h-9v38l-10 -38h-9l-10 38v-38h-9z" />
    <glyph glyph-name="percent" unicode="%" 
d="M386 3q-146 0 -249.5 104t-103.5 250t103.5 250t249.5 104t250 -104t104 -250t-104 -250t-250 -104zM386 51q127 0 216 90t89 216t-89 215.5t-216 89.5q-126 0 -216 -89.5t-90 -215.5t90 -216t216 -90zM386 72q-117 0 -201 83.5t-84 201.5q0 117 84 199.5t201 82.5
t200.5 -82.5t83.5 -199.5q0 -118 -83.5 -201.5t-200.5 -83.5zM386 116q53 0 93.5 32t66.5 75q-156 -41 -320 0q26 -43 66.5 -75t93.5 -32zM216 238q169 -39 341 0l54 86h-450zM349 357h76l-38 91zM294 427q3 -4 18.5 3.5t14.5 10.5q-7 14 -22 54t-27 58q-4 5 -19.5 -2.5
t-28 -18t-10.5 -13.5zM480 427l72 92q2 3 -10.5 13.5t-27.5 18t-19 2.5q-11 -14 -19 -33t-15 -42.5t-13 -36.5q-3 -2 9 -9q17 -10 23 -5zM645 12v38h-15v11h41v-11h-15v-38h-11zM676 12v49h15l9 -38l9 38h14v-49h-9v38l-10 -38h-9l-10 38v-38h-9z" />
    <glyph glyph-name="ampersand" unicode="&#x26;" horiz-adv-x="581" 
d="M348 187l-54 151q-19 0 -26 -28l-46 -155q-4 -14 -1.5 -19t13.5 -6q36 -2 50 9zM676 456l-36 -166q-6 -28 -24 -41l-108 -82l8 -23q1 -6 9 -6h83l-50 -138h-99q-31 0 -44 28l-24 52q-54 -49 -81 -64.5t-55 -15.5h-85q-58 0 -90.5 38t-13.5 102l54 183q32 104 142 104
q-1 2 -7.5 15.5t-7.5 16t-6 17.5t-3.5 19t0.5 20q7 31 11.5 49.5t12.5 44t17 40.5t23 31.5t31 25.5t41 15t54 6h201l-39 -131h-143q-15 0 -23.5 -1.5t-17 -8t-12.5 -19.5l-7 -24q-3 -14 5 -37l78 -228l33 25q13 11 15 22l27 131h131z" />
    <glyph glyph-name="quotesingle" unicode="'" horiz-adv-x="179" 
d="M164 423l68 304h145l-127 -304h-86z" />
    <glyph glyph-name="parenleft" unicode="(" 
d="M386 3q-146 0 -249.5 104t-103.5 250t103.5 250t249.5 104t250 -104t104 -250t-104 -250t-250 -104zM386 51q127 0 216 90t89 216t-89 215.5t-216 89.5q-126 0 -216 -89.5t-90 -215.5t90 -216t216 -90zM386 72q-117 0 -201 83.5t-84 201.5q0 117 84 199.5t201 82.5
t200.5 -82.5t83.5 -199.5q0 -118 -83.5 -201.5t-200.5 -83.5zM386 116q53 0 93.5 32t66.5 75q-156 -41 -320 0q26 -43 66.5 -75t93.5 -32zM216 238q169 -39 341 0l54 86h-450zM349 357h76l-38 91zM294 427q3 -4 18.5 3.5t14.5 10.5q-7 14 -22 54t-27 58q-4 5 -19.5 -2.5
t-28 -18t-10.5 -13.5zM480 427l72 92q2 3 -10.5 13.5t-27.5 18t-19 2.5q-11 -14 -19 -33t-15 -42.5t-13 -36.5q-3 -2 9 -9q17 -10 23 -5zM645 12v38h-15v11h41v-11h-15v-38h-11zM676 12v49h15l9 -38l9 38h14v-49h-9v38l-10 -38h-9l-10 38v-38h-9z" />
    <glyph glyph-name="parenright" unicode=")" 
d="M386 3q-146 0 -249.5 104t-103.5 250t103.5 250t249.5 104t250 -104t104 -250t-104 -250t-250 -104zM386 51q127 0 216 90t89 216t-89 215.5t-216 89.5q-126 0 -216 -89.5t-90 -215.5t90 -216t216 -90zM386 72q-117 0 -201 83.5t-84 201.5q0 117 84 199.5t201 82.5
t200.5 -82.5t83.5 -199.5q0 -118 -83.5 -201.5t-200.5 -83.5zM386 116q53 0 93.5 32t66.5 75q-156 -41 -320 0q26 -43 66.5 -75t93.5 -32zM216 238q169 -39 341 0l54 86h-450zM349 357h76l-38 91zM294 427q3 -4 18.5 3.5t14.5 10.5q-7 14 -22 54t-27 58q-4 5 -19.5 -2.5
t-28 -18t-10.5 -13.5zM480 427l72 92q2 3 -10.5 13.5t-27.5 18t-19 2.5q-11 -14 -19 -33t-15 -42.5t-13 -36.5q-3 -2 9 -9q17 -10 23 -5zM645 12v38h-15v11h41v-11h-15v-38h-11zM676 12v49h15l9 -38l9 38h14v-49h-9v38l-10 -38h-9l-10 38v-38h-9z" />
    <glyph glyph-name="asterisk" unicode="*" 
d="M386 3q-146 0 -249.5 104t-103.5 250t103.5 250t249.5 104t250 -104t104 -250t-104 -250t-250 -104zM386 51q127 0 216 90t89 216t-89 215.5t-216 89.5q-126 0 -216 -89.5t-90 -215.5t90 -216t216 -90zM386 72q-117 0 -201 83.5t-84 201.5q0 117 84 199.5t201 82.5
t200.5 -82.5t83.5 -199.5q0 -118 -83.5 -201.5t-200.5 -83.5zM386 116q53 0 93.5 32t66.5 75q-156 -41 -320 0q26 -43 66.5 -75t93.5 -32zM216 238q169 -39 341 0l54 86h-450zM349 357h76l-38 91zM294 427q3 -4 18.5 3.5t14.5 10.5q-7 14 -22 54t-27 58q-4 5 -19.5 -2.5
t-28 -18t-10.5 -13.5zM480 427l72 92q2 3 -10.5 13.5t-27.5 18t-19 2.5q-11 -14 -19 -33t-15 -42.5t-13 -36.5q-3 -2 9 -9q17 -10 23 -5zM645 12v38h-15v11h41v-11h-15v-38h-11zM676 12v49h15l9 -38l9 38h14v-49h-9v38l-10 -38h-9l-10 38v-38h-9z" />
    <glyph glyph-name="plus" unicode="+" 
d="M386 3q-146 0 -249.5 104t-103.5 250t103.5 250t249.5 104t250 -104t104 -250t-104 -250t-250 -104zM386 51q127 0 216 90t89 216t-89 215.5t-216 89.5q-126 0 -216 -89.5t-90 -215.5t90 -216t216 -90zM386 72q-117 0 -201 83.5t-84 201.5q0 117 84 199.5t201 82.5
t200.5 -82.5t83.5 -199.5q0 -118 -83.5 -201.5t-200.5 -83.5zM386 116q53 0 93.5 32t66.5 75q-156 -41 -320 0q26 -43 66.5 -75t93.5 -32zM216 238q169 -39 341 0l54 86h-450zM349 357h76l-38 91zM294 427q3 -4 18.5 3.5t14.5 10.5q-7 14 -22 54t-27 58q-4 5 -19.5 -2.5
t-28 -18t-10.5 -13.5zM480 427l72 92q2 3 -10.5 13.5t-27.5 18t-19 2.5q-11 -14 -19 -33t-15 -42.5t-13 -36.5q-3 -2 9 -9q17 -10 23 -5zM645 12v38h-15v11h41v-11h-15v-38h-11zM676 12v49h15l9 -38l9 38h14v-49h-9v38l-10 -38h-9l-10 38v-38h-9z" />
    <glyph glyph-name="comma" unicode="," horiz-adv-x="192" 
d="M25 0l41 138h143l-42 -138l-101 -101l31 101h-72z" />
    <glyph glyph-name="hyphen" unicode="-" horiz-adv-x="246" 
d="M115 307l38 129h196l-38 -129h-196z" />
    <glyph glyph-name="period" unicode="." horiz-adv-x="192" 
d="M25 0l41 138h143l-42 -138h-142z" />
    <glyph glyph-name="slash" unicode="/" 
d="M386 3q-146 0 -249.5 104t-103.5 250t103.5 250t249.5 104t250 -104t104 -250t-104 -250t-250 -104zM386 51q127 0 216 90t89 216t-89 215.5t-216 89.5q-126 0 -216 -89.5t-90 -215.5t90 -216t216 -90zM386 72q-117 0 -201 83.5t-84 201.5q0 117 84 199.5t201 82.5
t200.5 -82.5t83.5 -199.5q0 -118 -83.5 -201.5t-200.5 -83.5zM386 116q53 0 93.5 32t66.5 75q-156 -41 -320 0q26 -43 66.5 -75t93.5 -32zM216 238q169 -39 341 0l54 86h-450zM349 357h76l-38 91zM294 427q3 -4 18.5 3.5t14.5 10.5q-7 14 -22 54t-27 58q-4 5 -19.5 -2.5
t-28 -18t-10.5 -13.5zM480 427l72 92q2 3 -10.5 13.5t-27.5 18t-19 2.5q-11 -14 -19 -33t-15 -42.5t-13 -36.5q-3 -2 9 -9q17 -10 23 -5zM645 12v38h-15v11h41v-11h-15v-38h-11zM676 12v49h15l9 -38l9 38h14v-49h-9v38l-10 -38h-9l-10 38v-38h-9z" />
    <glyph glyph-name="zero" unicode="0" horiz-adv-x="424" 
d="M560 548l-116 -395q-50 -171 -228 -166q-33 1 -62 10.5t-54 31.5t-30.5 58t7.5 90l123 419q44 146 213 146q204 0 147 -194zM290 141l128 437q13 45 -26 45q-34 0 -46 -42l-129 -436q-12 -41 25 -42t48 38z" />
    <glyph glyph-name="one" unicode="1" horiz-adv-x="253" 
d="M438 727l-215 -727h-156l175 596h-68l101 131h163z" />
    <glyph glyph-name="two" unicode="2" horiz-adv-x="413" 
d="M448 348l-116 -95q-56 -46 -74.5 -69t-20.5 -46h192l-50 -138h-339q31 209 134 294l159 132q46 36 52 58l30 107q6 19 -13 19h-39q-15 0 -20 -18l-24 -82h-139l64 217h249q49 0 70.5 -27.5t6.5 -77.5l-51 -175q-17 -56 -71 -99z" />
    <glyph glyph-name="three" unicode="3" horiz-adv-x="355" 
d="M338 596h-143l38 131h210q48 0 69 -26.5t9 -67.5l-57 -193q-10 -35 -30.5 -52t-65.5 -20q27 -4 41 -19.5t13.5 -35t-5.5 -39.5l-59 -202q-21 -72 -115 -72h-210l41 138h127q10 0 14.5 0.5t10 5.5t8.5 15l34 114q11 34 -21 34h-99l38 129h102q27 0 35 24l32 108q5 14 2 21
t-19 7z" />
    <glyph glyph-name="four" unicode="4" horiz-adv-x="455" 
d="M521 263l-32 -109h-62l-46 -154h-150l46 154h-217l44 153l282 420h210l-137 -464h62zM230 263h78l77 264l-151 -251z" />
    <glyph glyph-name="five" unicode="5" horiz-adv-x="389" 
d="M514 596h-163l-48 -162h102q38 0 55.5 -23.5t5.5 -63.5l-87 -296q-14 -51 -81 -51h-253l41 138h142q18 0 22.5 3t9.5 16l40 135q3 13 -12 13h-173l124 422h314z" />
    <glyph glyph-name="six" unicode="6" horiz-adv-x="424" 
d="M506 366l-73 -250q-34 -116 -138 -116h-143q-58 0 -82 36t-5 99l143 487q30 105 142 105h230l-37 -131h-172q-22 0 -28 -22l-27 -93h110q110 0 80 -115zM295 146l62 213q5 14 1 19.5t-20 5.5h-51l-71 -242q-3 -12 3 -16.5t19 -4.5h29q21 0 28 25z" />
    <glyph glyph-name="seven" unicode="7" horiz-adv-x="378" 
d="M574 727l-23 -79l-297 -648h-159l281 596h-182l39 131h341z" />
    <glyph glyph-name="eight" unicode="8" horiz-adv-x="432" 
d="M162 460l58 195q21 72 115 72h175q48 0 70 -26.5t10 -67.5l-55 -186q-10 -35 -30 -52t-65 -20q40 -4 51 -35t-2 -59l-58 -200q-24 -81 -111 -81h-187q-48 0 -69.5 29t-8.5 73l57 192q10 36 30.5 54t65.5 19q-72 10 -46 93zM409 610h-30q-9 0 -13.5 -1t-9.5 -6t-8 -15
l-41 -135q-11 -32 16 -32h33q9 0 13.5 1t9.5 6t8 15l41 139q5 14 1 21t-20 7zM238 121h28q27 0 33 22l45 151q10 30 -17 30h-32q-13 0 -20 -4.5t-12 -19.5l-45 -151q-9 -28 20 -28z" />
    <glyph glyph-name="nine" unicode="9" horiz-adv-x="426" 
d="M128 349l81 278q16 55 48.5 77.5t88.5 22.5h146q122 0 88 -120l-151 -513q-15 -53 -46.5 -73.5t-92.5 -20.5h-228l40 138h163q14 0 21 4.5t12 20.5l21 68h-116q-53 0 -72 31.5t-3 86.5zM350 592l-70 -236q-7 -21 16 -21h54l77 260q3 13 -1.5 17t-17.5 4h-28
q-22 0 -30 -24z" />
    <glyph glyph-name="colon" unicode=":" horiz-adv-x="193" 
d="M133 370l41 138h143l-42 -138h-142zM25 0l41 138h143l-42 -138h-142z" />
    <glyph glyph-name="semicolon" unicode=";" horiz-adv-x="193" 
d="M133 370l41 138h143l-42 -138h-142zM25 0l41 138h143l-42 -138l-101 -101l31 101h-72z" />
    <glyph glyph-name="less" unicode="&#x3c;" horiz-adv-x="377" 
d="M621 884h-90l-218 -739h90l-43 -145h-335l42 145h77l218 739h-90l43 145h349z" />
    <glyph glyph-name="equal" unicode="=" horiz-adv-x="470" 
d="M746 1029l-273 -926q-31 -103 -145 -103h-170q-56 0 -84.5 34.5t-10.5 95.5l106 358h168l-95 -322q-8 -21 11 -21h39q16 0 23 7t13 29l206 703h-227l92 145h347z" />
    <glyph glyph-name="greater" unicode="&#x3e;" horiz-adv-x="471" 
d="M503 884h-219l43 145h424l-434 -874h182l-58 -155h-386z" />
    <glyph glyph-name="question" unicode="?" horiz-adv-x="427" 
d="M374 620q-10 0 -14.5 -5t-8.5 -18l-26 -89h-150l46 158q7 22 18.5 35.5t29.5 18.5t29 6t32 1h6h182q47 0 64 -28.5t5 -69.5l-84 -283q-6 -20 -25.5 -35t-53.5 -15h-104l-33 -114h-140l61 207h134q24 0 31 25l52 174q6 14 4 23t-17 9h-38zM93 0l41 138h143l-42 -138h-142z
" />
    <glyph glyph-name="at" unicode="@" horiz-adv-x="622" 
d="M638 139h-139q-39 -9 -80 -9q-59 0 -82.5 30.5t-7.5 85.5l65 224q14 39 55.5 58.5t89.5 19.5q47 0 76 -11l15 53q4 16 -1 22t-20 6h-228q-25 0 -30 -21l-142 -483q-8 -27 18 -27h340l-59 -87h-367q-51 0 -74 31.5t-9 79.5l150 514q17 58 50 80t83 22h388q35 0 51 -21
t7 -59zM476 242h52l62 211h-51q-19 0 -24 -18l-51 -175q-5 -18 12 -18z" />
    <glyph glyph-name="A" unicode="A" horiz-adv-x="655" 
d="M686 185l-56 -185h-169l7 22zM678 207l-200 -148l27 90h-237l-240 -331h-199l891 1211h213l-236 -807l-118 180l80 277l-291 -398h175l27 89z" />
    <glyph glyph-name="B" unicode="B" horiz-adv-x="468" 
d="M310 0h-285l253 860h168l-78 -268h58q18 0 27.5 6.5t16.5 28.5l63 217q11 40 -27 40h-301l92 145h327q56 0 77.5 -33.5t6.5 -85.5l-101 -338q-17 -60 -84 -60q23 -2 35 -17.5t11.5 -39.5t-8.5 -54l-86 -292q-32 -109 -165 -109zM330 462l-94 -317h56q25 0 33 26l77 261
q8 30 -22 30h-50z" />
    <glyph glyph-name="C" unicode="C" horiz-adv-x="427" 
d="M732 1029l-84 -284l-166 -38l56 189h-58q-25 0 -31 -23l-200 -682q-11 -36 28 -36h182l-84 -155h-196q-63 0 -97 38t-12 112l235 802q13 44 38.5 60.5t70.5 16.5h318z" />
    <glyph glyph-name="D" unicode="D" horiz-adv-x="472" 
d="M328 171l199 678q10 35 -28 35h-294l92 145h327q56 0 80 -33.5t9 -85.5l-236 -801q-32 -109 -165 -109h-286l252 860h168l-211 -715h60q25 0 33 26z" />
    <glyph glyph-name="E" unicode="E" horiz-adv-x="380" 
d="M278 860h168l-77 -263h161l-43 -148h-162l-86 -294h179l-85 -155h-308zM655 1029l-42 -145h-408l92 145h358z" />
    <glyph glyph-name="F" unicode="F" horiz-adv-x="365" 
d="M-28 -182l306 1042h168l-77 -263h152l-44 -148h-152l-185 -631h-168zM655 1029l-42 -145h-408l92 145h358z" />
    <glyph glyph-name="G" unicode="G" horiz-adv-x="479" 
d="M437 1029h269l-44 -145h-176q-18 0 -27 -6.5t-14 -25.5l-197 -668q-6 -21 2.5 -30t31.5 -9h44l107 362h-38l47 148h202l-187 -637l-195 -99l24 81h-67q-80 0 -123 47.5t-15 142.5l219 743q16 54 49 75t88 21z" />
    <glyph glyph-name="H" unicode="H" horiz-adv-x="472" 
d="M587 517l-199 -145l26 89h-84l-191 -643h-168l357 1211h168l-128 -436h85l27 91zM376 333l216 159l-145 -492h-170zM605 535l-117 179l93 315h169z" />
    <glyph glyph-name="I" unicode="I" horiz-adv-x="377" 
d="M355 860h169l-208 -705h90l-46 -155h-335l45 155h77zM621 884h-360l60 145h343z" />
    <glyph glyph-name="J" unicode="J" horiz-adv-x="470" 
d="M703 884h-396l92 145h347zM527 860h169l-223 -757q-31 -103 -145 -103h-170q-56 0 -84.5 34.5t-10.5 95.5l106 358h168l-95 -322q-8 -21 11 -21h39q16 0 23 7t13 29z" />
    <glyph glyph-name="K" unicode="K" horiz-adv-x="470" 
d="M319 425l-180 -607h-168l179 607h169zM157 449l171 580h165l-142 -484h9l235 484h173l-251 -495q42 -4 55 -37t-2 -75l-125 -422h-169l121 408q7 20 1 30.5t-27 10.5h-214z" />
    <glyph glyph-name="L" unicode="L" horiz-adv-x="381" 
d="M242 155h176l-85 -155h-234q-25 0 -43 22t-7 60l279 947h171z" />
    <glyph glyph-name="M" unicode="M" horiz-adv-x="717" 
d="M695 860l-253 -860h-168l253 860h168zM523 0l250 849q10 35 -28 35h-540l92 145h574q56 0 79.5 -33.5t8.5 -85.5l-268 -910h-168zM446 860l-307 -1042h-168l307 1042h168z" />
    <glyph glyph-name="N" unicode="N" horiz-adv-x="469" 
d="M274 0l250 849q10 35 -28 35h-291l92 145h325q56 0 79.5 -33.5t8.5 -85.5l-268 -910h-168zM446 860l-307 -1042h-168l307 1042h168z" />
    <glyph glyph-name="O" unicode="O" horiz-adv-x="474" 
d="M332 171l197 678q10 35 -28 35h-296l92 145h329q56 0 80 -33.5t9 -85.5l-233 -801q-32 -109 -165 -109h-154q-57 0 -86.5 37t-10.5 103l212 720h168l-203 -689q-8 -26 18 -26h41q22 0 30 26z" />
    <glyph glyph-name="P" unicode="P" horiz-adv-x="468" 
d="M324 443h60q31 0 43 39l106 362q11 40 -27 40h-301l92 145h327q56 0 77.5 -33.5t6.5 -85.5l-145 -487q-6 -21 -13.5 -36.5t-22.5 -35t-41 -29.5t-61 -10l-139 1l-147 -495h-168l307 1042h168z" />
    <glyph glyph-name="Q" unicode="Q" horiz-adv-x="474" 
d="M115 -123l41 123q-57 0 -83 37t-7 103l212 720h168l-203 -689q-8 -26 19 -26h32q28 0 35 26l200 678q10 35 -28 35h-296l92 145h329q56 0 80 -33.5t9 -85.5l-236 -801q-32 -109 -159 -109l-39 -123h-166z" />
    <glyph glyph-name="R" unicode="R" horiz-adv-x="468" 
d="M356 552h60q32 0 43 39l74 253q11 40 -27 40h-301l92 145h327q56 0 77.5 -33.5t6.5 -85.5l-113 -378q-17 -60 -84 -60q23 -2 35 -17.5t11.5 -39.5t-8.5 -54l-107 -361h-168l116 392q8 30 -22 30h-50l-178 -604h-168l306 1042h168z" />
    <glyph glyph-name="S" unicode="S" horiz-adv-x="461" 
d="M195 574h273q62 0 89 -35.5t6 -107.5l-102 -347q-25 -84 -130 -84h-197q-44 0 -67 32t-8 80l50 172h159l-38 -126q-6 -20 17 -20h38q26 0 32 23l81 274q4 14 -11 14h-229zM369 598h-167l102 345q25 86 124 86h311l-83 -284l-169 -38l56 189h-63q-25 0 -31 -23z" />
    <glyph glyph-name="T" unicode="T" horiz-adv-x="222" 
d="M280 860h169l-308 -1042h-168zM604 884h-471l63 145h451z" />
    <glyph glyph-name="U" unicode="U" horiz-adv-x="469" 
d="M328 1029h168l-248 -842q-7 -23 0.5 -32.5t30.5 -9.5h37l261 884h168l-298 -1011l-195 -99l24 81h-76q-174 0 -124 173z" />
    <glyph glyph-name="V" unicode="V" horiz-adv-x="449" 
d="M186 0l141 1029h165l-97 -572l220 572h169l-437 -1029h-161z" />
    <glyph glyph-name="W" unicode="W" horiz-adv-x="711" 
d="M186 0l136 1029h172l-82 -515l203 515h132l-82 -515l198 515h178l-450 -1029h-151l73 448l-173 -448h-154z" />
    <glyph glyph-name="X" unicode="X" horiz-adv-x="474" 
d="M752 1029l-133 -454q-19 -62 -103 -61q39 -2 54 -29.5t4 -63.5l-125 -421h-169l126 428q8 27 -20 27h-25q-18 0 -25.5 -4.5t-11.5 -17.5l-183 -615h-170l181 611q11 38 33 60.5t70 24.5q-38 3 -51 25.5t-3 57.5l127 432h172l-127 -430q-4 -15 1.5 -20t19.5 -5h29
q27 0 34 28l125 427h170z" />
    <glyph glyph-name="Y" unicode="Y" horiz-adv-x="473" 
d="M260 1029h171l23 -394l194 394h178l-623 -1211h-176l290 575z" />
    <glyph glyph-name="Z" unicode="Z" horiz-adv-x="471" 
d="M754 1029l-79 -145h-391l73 145h397zM55 0l430 860h178l-346 -705h182l-58 -155h-386z" />
    <glyph glyph-name="bracketleft" unicode="[" horiz-adv-x="380" 
d="M49 82l279 947h327l-42 -145h-159l-85 -287h161l-43 -148h-161l-87 -294h179l-85 -155h-234q-25 0 -43 22t-7 60z" />
    <glyph glyph-name="backslash" unicode="\" horiz-adv-x="380" 
d="M655 1029l-42 -145h-160l-84 -287h161l-43 -148h-162l-86 -294h179l-85 -155h-232q-25 0 -44 22t-8 60l241 818l-15 129h380z" />
    <glyph glyph-name="bracketright" unicode="]" horiz-adv-x="380" 
d="M239 155h179l-85 -155h-234q-25 1 -43 22.5t-7 59.5l229 778h168l-77 -263h161l-43 -148h-162zM655 1029l-42 -145h-408l92 145h358z" />
    <glyph glyph-name="asciicircum" unicode="^" horiz-adv-x="380" 
d="M25 0l302 1029h328l-42 -145h-160l-84 -287h161l-43 -148h-162l-86 -294h179l-85 -155h-308z" />
    <glyph glyph-name="underscore" unicode="_" horiz-adv-x="364" 
d="M-10 -143l38 129h326l-38 -129h-326z" />
    <glyph glyph-name="grave" unicode="`" 
d="M386 3q-146 0 -249.5 104t-103.5 250t103.5 250t249.5 104t250 -104t104 -250t-104 -250t-250 -104zM386 51q127 0 216 90t89 216t-89 215.5t-216 89.5q-126 0 -216 -89.5t-90 -215.5t90 -216t216 -90zM386 72q-117 0 -201 83.5t-84 201.5q0 117 84 199.5t201 82.5
t200.5 -82.5t83.5 -199.5q0 -118 -83.5 -201.5t-200.5 -83.5zM386 116q53 0 93.5 32t66.5 75q-156 -41 -320 0q26 -43 66.5 -75t93.5 -32zM216 238q169 -39 341 0l54 86h-450zM349 357h76l-38 91zM294 427q3 -4 18.5 3.5t14.5 10.5q-7 14 -22 54t-27 58q-4 5 -19.5 -2.5
t-28 -18t-10.5 -13.5zM480 427l72 92q2 3 -10.5 13.5t-27.5 18t-19 2.5q-11 -14 -19 -33t-15 -42.5t-13 -36.5q-3 -2 9 -9q17 -10 23 -5zM645 12v38h-15v11h41v-11h-15v-38h-11zM676 12v49h15l9 -38l9 38h14v-49h-9v38l-10 -38h-9l-10 38v-38h-9z" />
    <glyph glyph-name="a" unicode="a" horiz-adv-x="454" 
d="M335 240l57 329l-132 -329h75zM167 0h-157l319 727h215l-99 -727h-150l23 131h-99z" />
    <glyph glyph-name="b" unicode="b" horiz-adv-x="424" 
d="M299 421h49q16 0 24 5.5t13 21.5l39 132q10 30 -20 30h-49zM25 0l214 727h271q49 0 67 -26.5t6 -68.5l-64 -219q-6 -21 -28 -36t-57 -14q36 -2 47.5 -27.5t2.5 -57.5l-60 -201q-23 -77 -114 -77h-285zM211 121h54q24 0 32 25l43 146q9 32 -21 32h-48z" />
    <glyph glyph-name="c" unicode="c" horiz-adv-x="402" 
d="M594 727l-65 -221l-146 -34l40 138h-49q-22 0 -28 -22l-123 -418q-10 -32 22 -32h167l-54 -138h-197q-57 0 -87 33.5t-10 99.5l155 526q11 39 34 53.5t62 14.5h279z" />
    <glyph glyph-name="d" unicode="d" horiz-adv-x="424" 
d="M403 610h-48l-144 -489h48q29 0 36 25l127 432q5 16 1 24t-20 8zM25 0l214 727h288q39 0 55.5 -24.5t6.5 -57.5l-161 -547q-18 -62 -53.5 -80t-118.5 -18h-231z" />
    <glyph glyph-name="e" unicode="e" horiz-adv-x="334" 
d="M25 0l214 727h286l-39 -131h-134l-47 -160h131l-38 -129h-131l-50 -169h139l-50 -138h-281z" />
    <glyph glyph-name="f" unicode="f" horiz-adv-x="338" 
d="M25 0l214 727h291l-39 -131h-139l-47 -160h137l-38 -129h-137l-90 -307h-152z" />
    <glyph glyph-name="g" unicode="g" horiz-adv-x="422" 
d="M316 727h250l-39 -131h-156q-23 0 -29 -22l-125 -424q-8 -29 23 -29h51l55 186h-31l38 129h174l-120 -408l-168 -85l16 57h-93q-57 0 -87 34t-10 101l154 524q11 38 34.5 53t62.5 15z" />
    <glyph glyph-name="h" unicode="h" horiz-adv-x="427" 
d="M616 727l-214 -727h-150l90 307h-76l-91 -307h-150l214 727h150l-85 -291h76l86 291h150z" />
    <glyph glyph-name="i" unicode="i" horiz-adv-x="205" 
d="M394 727l-214 -727h-155l214 727h155z" />
    <glyph glyph-name="j" unicode="j" horiz-adv-x="415" 
d="M54 99l64 215h140l-53 -178q-5 -15 10 -15h44q12 0 16.5 5t9.5 20l132 450h-156l54 131h289l-193 -654q-22 -73 -102 -73h-184q-40 0 -62 26.5t-9 72.5z" />
    <glyph glyph-name="k" unicode="k" horiz-adv-x="424" 
d="M462 727h147l-91 -309q-19 -56 -86 -55q35 -2 46.5 -27.5t2.5 -57.5l-82 -278h-150l83 281q9 29 -18 29h-47l-92 -310h-150l214 727h150l-91 -310h45q27 0 36 28z" />
    <glyph glyph-name="l" unicode="l" horiz-adv-x="365" 
d="M25 0l214 727h161l-173 -589h164l-52 -138h-314z" />
    <glyph glyph-name="m" unicode="m" horiz-adv-x="551" 
d="M328 177l-32 227l-120 -404h-151l214 727h150l26 -254l170 254h156l-215 -727h-151l119 404z" />
    <glyph glyph-name="n" unicode="n" horiz-adv-x="413" 
d="M25 0l214 727h129l5 -281l83 281h146l-214 -727h-121l-13 290l-87 -290h-142z" />
    <glyph glyph-name="o" unicode="o" horiz-adv-x="424" 
d="M373 610q-18 0 -23 -18l-134 -453q-5 -18 14 -18h39q19 0 24 18l133 452q5 19 -15 19h-38zM312 727h218q35 0 51.5 -25t7.5 -58l-167 -567q-23 -77 -117 -77h-179q-40 0 -62.5 27t-9.5 72l164 557q8 32 33 51.5t61 19.5z" />
    <glyph glyph-name="p" unicode="p" horiz-adv-x="412" 
d="M239 215l-63 -215h-151l214 727h267q47 0 64 -27.5t6 -65.5l-100 -341q-10 -35 -39 -55.5t-68 -25t-69 -3.5t-61 6zM271 325h54q13 0 19 5.5t11 22.5l67 227q8 30 -23 30h-44z" />
    <glyph glyph-name="q" unicode="q" horiz-adv-x="424" 
d="M121 -87l28 87h-23q-40 0 -62.5 27t-9.5 72l164 557q8 32 33 51.5t61 19.5h218q35 0 51.5 -25t7.5 -58l-167 -567q-23 -77 -114 -77h-28l-27 -87h-132zM373 610q-18 0 -23 -18l-134 -453q-5 -18 14 -18h39q19 0 24 18l133 452q5 19 -15 19h-38z" />
    <glyph glyph-name="r" unicode="r" horiz-adv-x="425" 
d="M267 310l-91 -310h-151l214 727h275q46 0 64.5 -27t7.5 -65l-73 -247q-5 -18 -21.5 -30.5t-42.5 -12.5q20 -3 29 -22t0 -58l-78 -265h-151l84 285q8 25 -16 25h-50zM298 417h52q26 0 35 28l40 135q9 30 -23 30h-47z" />
    <glyph glyph-name="s" unicode="s" horiz-adv-x="375" 
d="M502 596h-132q-20 0 -27 -21l-43 -148h81q43 0 62.5 -25t4.5 -76l-83 -282q-6 -21 -26.5 -32.5t-45.5 -11.5h-247l41 138h126q20 0 26.5 5t11.5 20l35 123q3 10 -7 10h-80q-88 0 -63 88l83 282q20 61 89 61h233z" />
    <glyph glyph-name="t" unicode="t" horiz-adv-x="387" 
d="M232 727h352l-39 -131h-102l-173 -596h-150l177 596h-104z" />
    <glyph glyph-name="u" unicode="u" horiz-adv-x="423" 
d="M390 727h-1l-169 -575q-10 -30 25 -30h39l178 605h150l-206 -699l-174 -85l17 57h-87q-60 0 -89 33.5t-8 101.5l174 592h151z" />
    <glyph glyph-name="v" unicode="v" horiz-adv-x="410" 
d="M130 0l96 727h151l-58 -342l138 342h155l-319 -727h-163z" />
    <glyph glyph-name="w" unicode="w" horiz-adv-x="607" 
d="M226 727h151l-57 -334l138 334h116l-58 -334l138 334h155l-319 -727h-146l43 265l-114 -265h-143z" />
    <glyph glyph-name="x" unicode="x" horiz-adv-x="435" 
d="M620 727l-91 -309q-17 -56 -93 -55q35 -2 48.5 -26.5t3.5 -58.5l-82 -278h-152l84 284q7 26 -19 26h-23q-16 0 -22.5 -4t-10.5 -17l-86 -289h-152l84 285q7 23 15 37t28 27.5t50 14.5q-34 0 -46 21t-2 53l85 289h152l-84 -287q-4 -13 1.5 -18t18.5 -5h27q23 0 30 26
l84 284h152z" />
    <glyph glyph-name="y" unicode="y" horiz-adv-x="433" 
d="M211 227h-39q-39 0 -53.5 22.5t-2.5 62.5l123 415h151l-108 -363q-9 -28 15 -28h35q14 0 20 5t11 20l108 366h151l-125 -422q-11 -39 -34.5 -58.5t-66.5 -19.5h-43l-66 -227h-142z" />
    <glyph glyph-name="z" unicode="z" horiz-adv-x="366" 
d="M344 596h-152l39 131h331l-296 -589h126l-52 -138h-301z" />
    <glyph glyph-name="braceleft" unicode="{" horiz-adv-x="365" 
d="M-28 -182l318 1082l-15 129h380l-42 -145h-160l-84 -287h152l-44 -148h-152l-185 -631h-168z" />
    <glyph glyph-name="bar" unicode="|" horiz-adv-x="380" 
d="M655 1029l-42 -145h-160l-84 -287h162l-46 -148h-160l-86 -294h179l-85 -155h-308l265 900l-13 129h378z" />
    <glyph glyph-name="braceright" unicode="}" horiz-adv-x="259" 
d="M208 1029h471l-43 -145h-148l-314 -1066h-169l314 1066h-154z" />
    <glyph glyph-name="asciitilde" unicode="~" horiz-adv-x="365" 
d="M655 1029l-42 -145h-160l-84 -287h152l-44 -148h-152l-184 -631h-170l357 1211h327z" />
    <glyph glyph-name="exclamdown" unicode="&#xa1;" 
d="M386 3q-146 0 -249.5 104t-103.5 250t103.5 250t249.5 104t250 -104t104 -250t-104 -250t-250 -104zM386 51q127 0 216 90t89 216t-89 215.5t-216 89.5q-126 0 -216 -89.5t-90 -215.5t90 -216t216 -90zM386 72q-117 0 -201 83.5t-84 201.5q0 117 84 199.5t201 82.5
t200.5 -82.5t83.5 -199.5q0 -118 -83.5 -201.5t-200.5 -83.5zM386 116q53 0 93.5 32t66.5 75q-156 -41 -320 0q26 -43 66.5 -75t93.5 -32zM216 238q169 -39 341 0l54 86h-450zM349 357h76l-38 91zM294 427q3 -4 18.5 3.5t14.5 10.5q-7 14 -22 54t-27 58q-4 5 -19.5 -2.5
t-28 -18t-10.5 -13.5zM480 427l72 92q2 3 -10.5 13.5t-27.5 18t-19 2.5q-11 -14 -19 -33t-15 -42.5t-13 -36.5q-3 -2 9 -9q17 -10 23 -5zM645 12v38h-15v11h41v-11h-15v-38h-11zM676 12v49h15l9 -38l9 38h14v-49h-9v38l-10 -38h-9l-10 38v-38h-9z" />
    <glyph glyph-name="cent" unicode="&#xa2;" 
d="M386 3q-146 0 -249.5 104t-103.5 250t103.5 250t249.5 104t250 -104t104 -250t-104 -250t-250 -104zM386 51q127 0 216 90t89 216t-89 215.5t-216 89.5q-126 0 -216 -89.5t-90 -215.5t90 -216t216 -90zM386 72q-117 0 -201 83.5t-84 201.5q0 117 84 199.5t201 82.5
t200.5 -82.5t83.5 -199.5q0 -118 -83.5 -201.5t-200.5 -83.5zM386 116q53 0 93.5 32t66.5 75q-156 -41 -320 0q26 -43 66.5 -75t93.5 -32zM216 238q169 -39 341 0l54 86h-450zM349 357h76l-38 91zM294 427q3 -4 18.5 3.5t14.5 10.5q-7 14 -22 54t-27 58q-4 5 -19.5 -2.5
t-28 -18t-10.5 -13.5zM480 427l72 92q2 3 -10.5 13.5t-27.5 18t-19 2.5q-11 -14 -19 -33t-15 -42.5t-13 -36.5q-3 -2 9 -9q17 -10 23 -5zM645 12v38h-15v11h41v-11h-15v-38h-11zM676 12v49h15l9 -38l9 38h14v-49h-9v38l-10 -38h-9l-10 38v-38h-9z" />
    <glyph glyph-name="sterling" unicode="&#xa3;" 
d="M386 3q-146 0 -249.5 104t-103.5 250t103.5 250t249.5 104t250 -104t104 -250t-104 -250t-250 -104zM386 51q127 0 216 90t89 216t-89 215.5t-216 89.5q-126 0 -216 -89.5t-90 -215.5t90 -216t216 -90zM386 72q-117 0 -201 83.5t-84 201.5q0 117 84 199.5t201 82.5
t200.5 -82.5t83.5 -199.5q0 -118 -83.5 -201.5t-200.5 -83.5zM386 116q53 0 93.5 32t66.5 75q-156 -41 -320 0q26 -43 66.5 -75t93.5 -32zM216 238q169 -39 341 0l54 86h-450zM349 357h76l-38 91zM294 427q3 -4 18.5 3.5t14.5 10.5q-7 14 -22 54t-27 58q-4 5 -19.5 -2.5
t-28 -18t-10.5 -13.5zM480 427l72 92q2 3 -10.5 13.5t-27.5 18t-19 2.5q-11 -14 -19 -33t-15 -42.5t-13 -36.5q-3 -2 9 -9q17 -10 23 -5zM645 12v38h-15v11h41v-11h-15v-38h-11zM676 12v49h15l9 -38l9 38h14v-49h-9v38l-10 -38h-9l-10 38v-38h-9z" />
    <glyph glyph-name="currency" unicode="&#xa4;" 
d="M386 3q-146 0 -249.5 104t-103.5 250t103.5 250t249.5 104t250 -104t104 -250t-104 -250t-250 -104zM386 51q127 0 216 90t89 216t-89 215.5t-216 89.5q-126 0 -216 -89.5t-90 -215.5t90 -216t216 -90zM386 72q-117 0 -201 83.5t-84 201.5q0 117 84 199.5t201 82.5
t200.5 -82.5t83.5 -199.5q0 -118 -83.5 -201.5t-200.5 -83.5zM386 116q53 0 93.5 32t66.5 75q-156 -41 -320 0q26 -43 66.5 -75t93.5 -32zM216 238q169 -39 341 0l54 86h-450zM349 357h76l-38 91zM294 427q3 -4 18.5 3.5t14.5 10.5q-7 14 -22 54t-27 58q-4 5 -19.5 -2.5
t-28 -18t-10.5 -13.5zM480 427l72 92q2 3 -10.5 13.5t-27.5 18t-19 2.5q-11 -14 -19 -33t-15 -42.5t-13 -36.5q-3 -2 9 -9q17 -10 23 -5zM645 12v38h-15v11h41v-11h-15v-38h-11zM676 12v49h15l9 -38l9 38h14v-49h-9v38l-10 -38h-9l-10 38v-38h-9z" />
    <glyph glyph-name="yen" unicode="&#xa5;" horiz-adv-x="472" 
d="M750 1029l-303 -1029h-168l135 461h-84l-190 -643h-168l356 1211h168l-127 -436h84l129 436h168z" />
    <glyph glyph-name="brokenbar" unicode="&#xa6;" horiz-adv-x="606" 
d="M375 251l-5 356l-231 -789h-167l356 1211h164l4 -360l217 360h171l-304 -1029h-168l179 607z" />
    <glyph glyph-name="section" unicode="&#xa7;" horiz-adv-x="473" 
d="M406 722l-267 -904h-168l358 1211h137l60 -203l60 203h166l-304 -1029h-166l173 585z" />
    <glyph glyph-name="dieresis" unicode="&#xa8;" 
d="M386 3q-146 0 -249.5 104t-103.5 250t103.5 250t249.5 104t250 -104t104 -250t-104 -250t-250 -104zM386 51q127 0 216 90t89 216t-89 215.5t-216 89.5q-126 0 -216 -89.5t-90 -215.5t90 -216t216 -90zM386 72q-117 0 -201 83.5t-84 201.5q0 117 84 199.5t201 82.5
t200.5 -82.5t83.5 -199.5q0 -118 -83.5 -201.5t-200.5 -83.5zM386 116q53 0 93.5 32t66.5 75q-156 -41 -320 0q26 -43 66.5 -75t93.5 -32zM216 238q169 -39 341 0l54 86h-450zM349 357h76l-38 91zM294 427q3 -4 18.5 3.5t14.5 10.5q-7 14 -22 54t-27 58q-4 5 -19.5 -2.5
t-28 -18t-10.5 -13.5zM480 427l72 92q2 3 -10.5 13.5t-27.5 18t-19 2.5q-11 -14 -19 -33t-15 -42.5t-13 -36.5q-3 -2 9 -9q17 -10 23 -5zM645 12v38h-15v11h41v-11h-15v-38h-11zM676 12v49h15l9 -38l9 38h14v-49h-9v38l-10 -38h-9l-10 38v-38h-9z" />
    <glyph glyph-name="copyright" unicode="&#xa9;" horiz-adv-x="818" 
d="M410 727q151 0 259.5 -105t108.5 -262q0 -159 -108.5 -264.5t-259.5 -105.5q-153 0 -261.5 105.5t-108.5 264.5q0 157 109 262t261 105zM410 665q-126 0 -211 -87.5t-85 -217.5q0 -133 85 -220t211 -87q125 0 209.5 87t84.5 220q0 130 -85 217.5t-209 87.5zM536 291h66
q-14 -72 -63 -114.5t-117 -42.5q-97 0 -156.5 64.5t-59.5 162.5q0 99 58 161.5t155 62.5q72 0 122 -40.5t60 -112.5h-65q-8 41 -39.5 65.5t-76.5 24.5q-66 0 -103 -45t-37 -115q0 -68 39.5 -116.5t102.5 -48.5q46 0 77 26t37 68z" />
    <glyph glyph-name="ordfeminine" unicode="&#xaa;" horiz-adv-x="429" 
d="M350 592l-47 -156h80l51 174h-61q-18 0 -23 -18zM404 0h-149l91 307h-80l-91 -307h-150l194 659q9 31 35 49.5t61 18.5h303z" />
    <glyph glyph-name="guillemotleft" unicode="&#xab;" horiz-adv-x="473" 
d="M446 859l-78 -266h88l84 291h-61q-26 0 -33 -25zM448 0h-169l136 458h-87l-189 -640h-168l329 1115q13 44 49.5 70t86.5 26h315z" />
    <glyph glyph-name="logicalnot" unicode="&#xac;" horiz-adv-x="528" 
d="M805 1030l-270 -484l-14 -546h-157l14 376l-281 -558h-168l390 737l-10 475h162l-9 -343l175 343h168z" />
    <glyph glyph-name="uni00AD" unicode="&#xad;" horiz-adv-x="451" 
d="M494 727h155l-199 -341l-8 -386h-143l6 261l-127 -261h-155l209 394l-9 333h146l-1 -236z" />
    <glyph glyph-name="registered" unicode="&#xae;" horiz-adv-x="828" 
d="M416 737q152 0 262 -106.5t110 -264.5q0 -161 -110 -268.5t-262 -107.5q-155 0 -265.5 107t-110.5 269q0 158 110.5 264.5t265.5 106.5zM416 674q-128 0 -214.5 -88t-86.5 -220q0 -136 86 -224t215 -88q126 0 211.5 88.5t85.5 223.5q0 132 -85.5 220t-211.5 88zM335 336
v-187h-63v431h163q149 0 149 -122q-3 -106 -109 -120l121 -189h-72l-115 187h-74zM335 389h80q24 0 39.5 2t32.5 9t25 22.5t8 39.5q0 67 -94 67h-91v-140z" />
    <glyph glyph-name="macron" unicode="&#xaf;" horiz-adv-x="828" 
d="M663 864l3 -129q-180 -17 -303.5 -151t-123.5 -318q0 -128 63 -236.5t171.5 -171.5t236.5 -63q101 0 190.5 39.5t155.5 109.5h162q-82 -128 -216 -203t-292 -75q-163 0 -301 80.5t-218.5 218.5t-80.5 301q0 155 73.5 288.5t200 215.5t279.5 94z" />
    <glyph glyph-name="degree" unicode="&#xb0;" horiz-adv-x="479" 
d="M253 334h-39q-44 0 -60.5 24t-3.5 69l178 602h167l-160 -542q-10 -33 18 -33h38q15 0 22 6t13 22l161 547h168l-180 -610q-13 -42 -39 -63.5t-75 -21.5h-44l-151 -516h-164z" />
    <glyph glyph-name="plusminus" unicode="&#xb1;" horiz-adv-x="905" 
d="M710 0l46 149h-238l-240 -331h-199l895 1211h209l-303 -1029h-170zM794 281l127 419l-303 -419h176zM346 -131l74 104q128 -101 291 -101q138 0 251 72h195q-83 -94 -199 -147t-247 -53q-203 0 -365 125zM288 139l-85 -111q-88 143 -88 312q0 162 80 299.5t217 217.5
t299 80q59 0 116 -11l-87 -118q-133 8 -247.5 -52.5t-182 -171.5t-67.5 -244q0 -106 45 -201z" />
    <glyph glyph-name="twosuperior" unicode="&#xb2;" horiz-adv-x="854" 
d="M758 0l21 149h-231l-186 -331h-199l687 1211h213l-132 -1029h-173zM797 281l66 441l-236 -441h170zM302 110l-71 -123q-116 157 -116 353q0 165 82 304t224.5 218.5t311.5 74.5l-75 -131q-176 -20 -295.5 -152.5t-119.5 -313.5q0 -124 59 -230zM399 -168l61 112
q115 -72 251 -72q137 0 251 72h195q-83 -94 -199 -147t-247 -53q-169 0 -312 88z" />
    <glyph glyph-name="threesuperior" unicode="&#xb3;" horiz-adv-x="987" 
d="M962 1029v-1029h-165v149h-243l-165 -363h-180l567 1243h186zM615 281h182v400zM319 84l-61 -131q-143 169 -143 387q0 154 74.5 287.5t202.5 215.5t281 93l-64 -140q-158 -36 -262 -163t-104 -293q0 -140 76 -256zM959 -56h196q-84 -93 -199.5 -146.5t-244.5 -53.5
q-151 0 -282 71l53 118q105 -61 229 -61q131 0 248 72z" />
    <glyph glyph-name="acute" unicode="&#xb4;" 
d="M386 3q-146 0 -249.5 104t-103.5 250t103.5 250t249.5 104t250 -104t104 -250t-104 -250t-250 -104zM386 51q127 0 216 90t89 216t-89 215.5t-216 89.5q-126 0 -216 -89.5t-90 -215.5t90 -216t216 -90zM386 72q-117 0 -201 83.5t-84 201.5q0 117 84 199.5t201 82.5
t200.5 -82.5t83.5 -199.5q0 -118 -83.5 -201.5t-200.5 -83.5zM386 116q53 0 93.5 32t66.5 75q-156 -41 -320 0q26 -43 66.5 -75t93.5 -32zM216 238q169 -39 341 0l54 86h-450zM349 357h76l-38 91zM294 427q3 -4 18.5 3.5t14.5 10.5q-7 14 -22 54t-27 58q-4 5 -19.5 -2.5
t-28 -18t-10.5 -13.5zM480 427l72 92q2 3 -10.5 13.5t-27.5 18t-19 2.5q-11 -14 -19 -33t-15 -42.5t-13 -36.5q-3 -2 9 -9q17 -10 23 -5zM645 12v38h-15v11h41v-11h-15v-38h-11zM676 12v49h15l9 -38l9 38h14v-49h-9v38l-10 -38h-9l-10 38v-38h-9z" />
    <glyph glyph-name="mu" unicode="&#xb5;" horiz-adv-x="455" 
d="M556 429l-101 -345q-25 -84 -130 -84h-201q-43 0 -63 27t-6 74l54 183h156l-38 -129q-6 -22 14 -22h36q26 0 32 23l78 267q3 14 -11 14h-96q-128 0 -92 123l113 383q25 86 126 86h299l-84 -284l-166 -38l57 189h-58q-25 0 -31 -23l-90 -301h106q62 0 89.5 -35.5
t6.5 -107.5z" />
    <glyph glyph-name="mu" unicode="&#x3bc;" horiz-adv-x="455" 
d="M556 429l-101 -345q-25 -84 -130 -84h-201q-43 0 -63 27t-6 74l54 183h156l-38 -129q-6 -22 14 -22h36q26 0 32 23l78 267q3 14 -11 14h-96q-128 0 -92 123l113 383q25 86 126 86h299l-84 -284l-166 -38l57 189h-58q-25 0 -31 -23l-90 -301h106q62 0 89.5 -35.5
t6.5 -107.5z" />
    <glyph glyph-name="paragraph" unicode="&#xb6;" horiz-adv-x="452" 
d="M646 884h-163q-30 0 -39 -30l-76 -260h98q65 0 89 -37.5t6 -99.5l-115 -393q-18 -64 -101 -64h-269l46 155h138q27 0 37 6t16 28l72 241q5 15 -10 15h-97q-123 0 -87 118l111 378q26 88 128 88h259z" />
    <glyph glyph-name="periodcentered" unicode="&#xb7;" 
d="M386 3q-146 0 -249.5 104t-103.5 250t103.5 250t249.5 104t250 -104t104 -250t-104 -250t-250 -104zM386 51q127 0 216 90t89 216t-89 215.5t-216 89.5q-126 0 -216 -89.5t-90 -215.5t90 -216t216 -90zM386 72q-117 0 -201 83.5t-84 201.5q0 117 84 199.5t201 82.5
t200.5 -82.5t83.5 -199.5q0 -118 -83.5 -201.5t-200.5 -83.5zM386 116q53 0 93.5 32t66.5 75q-156 -41 -320 0q26 -43 66.5 -75t93.5 -32zM216 238q169 -39 341 0l54 86h-450zM349 357h76l-38 91zM294 427q3 -4 18.5 3.5t14.5 10.5q-7 14 -22 54t-27 58q-4 5 -19.5 -2.5
t-28 -18t-10.5 -13.5zM480 427l72 92q2 3 -10.5 13.5t-27.5 18t-19 2.5q-11 -14 -19 -33t-15 -42.5t-13 -36.5q-3 -2 9 -9q17 -10 23 -5zM645 12v38h-15v11h41v-11h-15v-38h-11zM676 12v49h15l9 -38l9 38h14v-49h-9v38l-10 -38h-9l-10 38v-38h-9z" />
    <glyph glyph-name="cedilla" unicode="&#xb8;" horiz-adv-x="801" 
d="M657 865l-40 -136q-163 -33 -270 -163t-107 -299q0 -96 37.5 -183.5t100.5 -151t150 -101t182 -37.5q100 0 188.5 39.5t156.5 110.5h163q-83 -128 -217.5 -203t-290.5 -75q-162 0 -300.5 81t-219 219.5t-80.5 300.5q0 115 43 221t116 185t174 130.5t214 61.5z" />
    <glyph glyph-name="onesuperior" unicode="&#xb9;" horiz-adv-x="801" 
d="M1056 -56h162q-82 -128 -216 -203t-292 -75q-163 0 -301 80.5t-218.5 218.5t-80.5 301q0 120 45.5 229t122.5 189t183 129t224 54l-18 -130q-181 -17 -304.5 -151.5t-123.5 -319.5q0 -128 63 -236.5t171.5 -171.5t236.5 -63q101 0 190.5 39.5t155.5 109.5z" />
    <glyph glyph-name="ordmasculine" unicode="&#xba;" horiz-adv-x="909" 
d="M1056 -56h162q-82 -128 -216 -203t-292 -75q-163 0 -301 80.5t-218.5 218.5t-80.5 301q0 234 157.5 406t386.5 193l11 -128q-180 -17 -303 -152t-123 -319q0 -128 63 -236.5t171.5 -171.5t236.5 -63q101 0 190.5 39.5t155.5 109.5z" />
    <glyph glyph-name="guillemotright" unicode="&#xbb;" horiz-adv-x="828" 
d="M682 867l-68 -138q-162 -34 -268.5 -163.5t-106.5 -299.5q0 -128 63 -236.5t171.5 -171.5t236.5 -63q101 0 190.5 39.5t155.5 109.5h162q-82 -128 -216 -203t-292 -75q-163 0 -301 80.5t-218.5 218.5t-80.5 301q0 119 45 228t121.5 189t182.5 129.5t223 54.5z" />
    <glyph glyph-name="onequarter" unicode="&#xbc;" horiz-adv-x="905" 
d="M346 -131l74 104q128 -101 291 -101q138 0 251 72h195q-83 -94 -199 -147t-247 -53q-203 0 -365 125zM288 139l-85 -111q-88 143 -88 312q0 162 80 299.5t217 217.5t299 80q59 0 116 -11l-87 -118q-133 8 -247.5 -52.5t-182 -171.5t-67.5 -244q0 -106 45 -201zM936 185
l-56 -185h-169l7 22zM928 207l-200 -148l27 90h-237l-240 -331h-199l891 1211h213l-236 -807l-118 180l80 277l-291 -398h175l27 89z" />
    <glyph glyph-name="onehalf" unicode="&#xbd;" horiz-adv-x="854" 
d="M302 110l-71 -123q-116 157 -116 353q0 165 82 304t224.5 218.5t311.5 74.5l-75 -131q-176 -20 -295.5 -152.5t-119.5 -313.5q0 -124 59 -230zM399 -168l61 112q115 -72 251 -72q137 0 251 72h195q-83 -94 -199 -147t-247 -53q-169 0 -312 88zM955 185l-24 -185h-168
l3 21zM943 207l-174 -149l12 91h-233l-186 -331h-199l687 1211h213l-103 -805l-149 180l32 279l-216 -402h169l11 89z" />
    <glyph glyph-name="threequarters" unicode="&#xbe;" horiz-adv-x="987" 
d="M319 84l-61 -131q-143 169 -143 387q0 154 74.5 287.5t202.5 215.5t281 93l-64 -140q-158 -36 -262 -163t-104 -293q0 -140 76 -256zM959 -56h196q-84 -93 -199.5 -146.5t-244.5 -53.5q-151 0 -282 71l53 118q105 -61 229 -61q131 0 248 72zM962 200v-200h-165v24z
M944 214l-147 -156v91h-243l-165 -363h-180l567 1243h186v-800l-165 177v275l-182 -400h182v90z" />
    <glyph glyph-name="questiondown" unicode="&#xbf;" 
d="M386 3q-146 0 -249.5 104t-103.5 250t103.5 250t249.5 104t250 -104t104 -250t-104 -250t-250 -104zM386 51q127 0 216 90t89 216t-89 215.5t-216 89.5q-126 0 -216 -89.5t-90 -215.5t90 -216t216 -90zM386 72q-117 0 -201 83.5t-84 201.5q0 117 84 199.5t201 82.5
t200.5 -82.5t83.5 -199.5q0 -118 -83.5 -201.5t-200.5 -83.5zM386 116q53 0 93.5 32t66.5 75q-156 -41 -320 0q26 -43 66.5 -75t93.5 -32zM216 238q169 -39 341 0l54 86h-450zM349 357h76l-38 91zM294 427q3 -4 18.5 3.5t14.5 10.5q-7 14 -22 54t-27 58q-4 5 -19.5 -2.5
t-28 -18t-10.5 -13.5zM480 427l72 92q2 3 -10.5 13.5t-27.5 18t-19 2.5q-11 -14 -19 -33t-15 -42.5t-13 -36.5q-3 -2 9 -9q17 -10 23 -5zM645 12v38h-15v11h41v-11h-15v-38h-11zM676 12v49h15l9 -38l9 38h14v-49h-9v38l-10 -38h-9l-10 38v-38h-9z" />
    <glyph glyph-name="Agrave" unicode="&#xc0;" horiz-adv-x="365" 
d="M25 0l265 900l-15 129h380l-42 -145h-160l-84 -287h152l-44 -148h-152l-132 -449h-168z" />
    <glyph glyph-name="Aacute" unicode="&#xc1;" horiz-adv-x="365" 
d="M655 1029l-42 -145h-160l-84 -287h152l-44 -148h-152l-130 -449h-170l303 1029h327z" />
    <glyph glyph-name="Acircumflex" unicode="&#xc2;" horiz-adv-x="259" 
d="M208 1029h471l-43 -145h-148l-260 -884h-169l260 884h-154z" />
    <glyph glyph-name="Atilde" unicode="&#xc3;" horiz-adv-x="479" 
d="M253 334h-39q-44 0 -60.5 24t-3.5 69l178 602h167l-160 -542q-10 -33 18 -33h38q15 0 22 6t13 22l161 547h168l-180 -610q-13 -42 -39 -63.5t-75 -21.5h-44l-98 -334h-164z" />
    <glyph glyph-name="Adieresis" unicode="&#xc4;" 
d="M386 3q-146 0 -249.5 104t-103.5 250t103.5 250t249.5 104t250 -104t104 -250t-104 -250t-250 -104zM386 51q127 0 216 90t89 216t-89 215.5t-216 89.5q-126 0 -216 -89.5t-90 -215.5t90 -216t216 -90zM386 72q-117 0 -201 83.5t-84 201.5q0 117 84 199.5t201 82.5
t200.5 -82.5t83.5 -199.5q0 -118 -83.5 -201.5t-200.5 -83.5zM386 116q53 0 93.5 32t66.5 75q-156 -41 -320 0q26 -43 66.5 -75t93.5 -32zM216 238q169 -39 341 0l54 86h-450zM349 357h76l-38 91zM294 427q3 -4 18.5 3.5t14.5 10.5q-7 14 -22 54t-27 58q-4 5 -19.5 -2.5
t-28 -18t-10.5 -13.5zM480 427l72 92q2 3 -10.5 13.5t-27.5 18t-19 2.5q-11 -14 -19 -33t-15 -42.5t-13 -36.5q-3 -2 9 -9q17 -10 23 -5zM645 12v38h-15v11h41v-11h-15v-38h-11zM676 12v49h15l9 -38l9 38h14v-49h-9v38l-10 -38h-9l-10 38v-38h-9z" />
    <glyph glyph-name="Aring" unicode="&#xc5;" 
d="M386 3q-146 0 -249.5 104t-103.5 250t103.5 250t249.5 104t250 -104t104 -250t-104 -250t-250 -104zM386 51q127 0 216 90t89 216t-89 215.5t-216 89.5q-126 0 -216 -89.5t-90 -215.5t90 -216t216 -90zM386 72q-117 0 -201 83.5t-84 201.5q0 117 84 199.5t201 82.5
t200.5 -82.5t83.5 -199.5q0 -118 -83.5 -201.5t-200.5 -83.5zM386 116q53 0 93.5 32t66.5 75q-156 -41 -320 0q26 -43 66.5 -75t93.5 -32zM216 238q169 -39 341 0l54 86h-450zM349 357h76l-38 91zM294 427q3 -4 18.5 3.5t14.5 10.5q-7 14 -22 54t-27 58q-4 5 -19.5 -2.5
t-28 -18t-10.5 -13.5zM480 427l72 92q2 3 -10.5 13.5t-27.5 18t-19 2.5q-11 -14 -19 -33t-15 -42.5t-13 -36.5q-3 -2 9 -9q17 -10 23 -5zM645 12v38h-15v11h41v-11h-15v-38h-11zM676 12v49h15l9 -38l9 38h14v-49h-9v38l-10 -38h-9l-10 38v-38h-9z" />
    <glyph glyph-name="AE" unicode="&#xc6;" 
d="M386 3q-146 0 -249.5 104t-103.5 250t103.5 250t249.5 104t250 -104t104 -250t-104 -250t-250 -104zM386 51q127 0 216 90t89 216t-89 215.5t-216 89.5q-126 0 -216 -89.5t-90 -215.5t90 -216t216 -90zM386 72q-117 0 -201 83.5t-84 201.5q0 117 84 199.5t201 82.5
t200.5 -82.5t83.5 -199.5q0 -118 -83.5 -201.5t-200.5 -83.5zM386 116q53 0 93.5 32t66.5 75q-156 -41 -320 0q26 -43 66.5 -75t93.5 -32zM216 238q169 -39 341 0l54 86h-450zM349 357h76l-38 91zM294 427q3 -4 18.5 3.5t14.5 10.5q-7 14 -22 54t-27 58q-4 5 -19.5 -2.5
t-28 -18t-10.5 -13.5zM480 427l72 92q2 3 -10.5 13.5t-27.5 18t-19 2.5q-11 -14 -19 -33t-15 -42.5t-13 -36.5q-3 -2 9 -9q17 -10 23 -5zM645 12v38h-15v11h41v-11h-15v-38h-11zM676 12v49h15l9 -38l9 38h14v-49h-9v38l-10 -38h-9l-10 38v-38h-9z" />
    <glyph glyph-name="Ccedilla" unicode="&#xc7;" 
d="M386 3q-146 0 -249.5 104t-103.5 250t103.5 250t249.5 104t250 -104t104 -250t-104 -250t-250 -104zM386 51q127 0 216 90t89 216t-89 215.5t-216 89.5q-126 0 -216 -89.5t-90 -215.5t90 -216t216 -90zM386 72q-117 0 -201 83.5t-84 201.5q0 117 84 199.5t201 82.5
t200.5 -82.5t83.5 -199.5q0 -118 -83.5 -201.5t-200.5 -83.5zM386 116q53 0 93.5 32t66.5 75q-156 -41 -320 0q26 -43 66.5 -75t93.5 -32zM216 238q169 -39 341 0l54 86h-450zM349 357h76l-38 91zM294 427q3 -4 18.5 3.5t14.5 10.5q-7 14 -22 54t-27 58q-4 5 -19.5 -2.5
t-28 -18t-10.5 -13.5zM480 427l72 92q2 3 -10.5 13.5t-27.5 18t-19 2.5q-11 -14 -19 -33t-15 -42.5t-13 -36.5q-3 -2 9 -9q17 -10 23 -5zM645 12v38h-15v11h41v-11h-15v-38h-11zM676 12v49h15l9 -38l9 38h14v-49h-9v38l-10 -38h-9l-10 38v-38h-9z" />
    <glyph glyph-name="Egrave" unicode="&#xc8;" 
d="M386 3q-146 0 -249.5 104t-103.5 250t103.5 250t249.5 104t250 -104t104 -250t-104 -250t-250 -104zM386 51q127 0 216 90t89 216t-89 215.5t-216 89.5q-126 0 -216 -89.5t-90 -215.5t90 -216t216 -90zM386 72q-117 0 -201 83.5t-84 201.5q0 117 84 199.5t201 82.5
t200.5 -82.5t83.5 -199.5q0 -118 -83.5 -201.5t-200.5 -83.5zM386 116q53 0 93.5 32t66.5 75q-156 -41 -320 0q26 -43 66.5 -75t93.5 -32zM216 238q169 -39 341 0l54 86h-450zM349 357h76l-38 91zM294 427q3 -4 18.5 3.5t14.5 10.5q-7 14 -22 54t-27 58q-4 5 -19.5 -2.5
t-28 -18t-10.5 -13.5zM480 427l72 92q2 3 -10.5 13.5t-27.5 18t-19 2.5q-11 -14 -19 -33t-15 -42.5t-13 -36.5q-3 -2 9 -9q17 -10 23 -5zM645 12v38h-15v11h41v-11h-15v-38h-11zM676 12v49h15l9 -38l9 38h14v-49h-9v38l-10 -38h-9l-10 38v-38h-9z" />
    <glyph glyph-name="Eacute" unicode="&#xc9;" 
d="M386 3q-146 0 -249.5 104t-103.5 250t103.5 250t249.5 104t250 -104t104 -250t-104 -250t-250 -104zM386 51q127 0 216 90t89 216t-89 215.5t-216 89.5q-126 0 -216 -89.5t-90 -215.5t90 -216t216 -90zM386 72q-117 0 -201 83.5t-84 201.5q0 117 84 199.5t201 82.5
t200.5 -82.5t83.5 -199.5q0 -118 -83.5 -201.5t-200.5 -83.5zM386 116q53 0 93.5 32t66.5 75q-156 -41 -320 0q26 -43 66.5 -75t93.5 -32zM216 238q169 -39 341 0l54 86h-450zM349 357h76l-38 91zM294 427q3 -4 18.5 3.5t14.5 10.5q-7 14 -22 54t-27 58q-4 5 -19.5 -2.5
t-28 -18t-10.5 -13.5zM480 427l72 92q2 3 -10.5 13.5t-27.5 18t-19 2.5q-11 -14 -19 -33t-15 -42.5t-13 -36.5q-3 -2 9 -9q17 -10 23 -5zM645 12v38h-15v11h41v-11h-15v-38h-11zM676 12v49h15l9 -38l9 38h14v-49h-9v38l-10 -38h-9l-10 38v-38h-9z" />
    <glyph glyph-name="Ecircumflex" unicode="&#xca;" 
d="M386 3q-146 0 -249.5 104t-103.5 250t103.5 250t249.5 104t250 -104t104 -250t-104 -250t-250 -104zM386 51q127 0 216 90t89 216t-89 215.5t-216 89.5q-126 0 -216 -89.5t-90 -215.5t90 -216t216 -90zM386 72q-117 0 -201 83.5t-84 201.5q0 117 84 199.5t201 82.5
t200.5 -82.5t83.5 -199.5q0 -118 -83.5 -201.5t-200.5 -83.5zM386 116q53 0 93.5 32t66.5 75q-156 -41 -320 0q26 -43 66.5 -75t93.5 -32zM216 238q169 -39 341 0l54 86h-450zM349 357h76l-38 91zM294 427q3 -4 18.5 3.5t14.5 10.5q-7 14 -22 54t-27 58q-4 5 -19.5 -2.5
t-28 -18t-10.5 -13.5zM480 427l72 92q2 3 -10.5 13.5t-27.5 18t-19 2.5q-11 -14 -19 -33t-15 -42.5t-13 -36.5q-3 -2 9 -9q17 -10 23 -5zM645 12v38h-15v11h41v-11h-15v-38h-11zM676 12v49h15l9 -38l9 38h14v-49h-9v38l-10 -38h-9l-10 38v-38h-9z" />
    <glyph glyph-name="Edieresis" unicode="&#xcb;" 
d="M386 3q-146 0 -249.5 104t-103.5 250t103.5 250t249.5 104t250 -104t104 -250t-104 -250t-250 -104zM386 51q127 0 216 90t89 216t-89 215.5t-216 89.5q-126 0 -216 -89.5t-90 -215.5t90 -216t216 -90zM386 72q-117 0 -201 83.5t-84 201.5q0 117 84 199.5t201 82.5
t200.5 -82.5t83.5 -199.5q0 -118 -83.5 -201.5t-200.5 -83.5zM386 116q53 0 93.5 32t66.5 75q-156 -41 -320 0q26 -43 66.5 -75t93.5 -32zM216 238q169 -39 341 0l54 86h-450zM349 357h76l-38 91zM294 427q3 -4 18.5 3.5t14.5 10.5q-7 14 -22 54t-27 58q-4 5 -19.5 -2.5
t-28 -18t-10.5 -13.5zM480 427l72 92q2 3 -10.5 13.5t-27.5 18t-19 2.5q-11 -14 -19 -33t-15 -42.5t-13 -36.5q-3 -2 9 -9q17 -10 23 -5zM645 12v38h-15v11h41v-11h-15v-38h-11zM676 12v49h15l9 -38l9 38h14v-49h-9v38l-10 -38h-9l-10 38v-38h-9z" />
    <glyph glyph-name="Igrave" unicode="&#xcc;" 
d="M386 3q-146 0 -249.5 104t-103.5 250t103.5 250t249.5 104t250 -104t104 -250t-104 -250t-250 -104zM386 51q127 0 216 90t89 216t-89 215.5t-216 89.5q-126 0 -216 -89.5t-90 -215.5t90 -216t216 -90zM386 72q-117 0 -201 83.5t-84 201.5q0 117 84 199.5t201 82.5
t200.5 -82.5t83.5 -199.5q0 -118 -83.5 -201.5t-200.5 -83.5zM386 116q53 0 93.5 32t66.5 75q-156 -41 -320 0q26 -43 66.5 -75t93.5 -32zM216 238q169 -39 341 0l54 86h-450zM349 357h76l-38 91zM294 427q3 -4 18.5 3.5t14.5 10.5q-7 14 -22 54t-27 58q-4 5 -19.5 -2.5
t-28 -18t-10.5 -13.5zM480 427l72 92q2 3 -10.5 13.5t-27.5 18t-19 2.5q-11 -14 -19 -33t-15 -42.5t-13 -36.5q-3 -2 9 -9q17 -10 23 -5zM645 12v38h-15v11h41v-11h-15v-38h-11zM676 12v49h15l9 -38l9 38h14v-49h-9v38l-10 -38h-9l-10 38v-38h-9z" />
    <glyph glyph-name="Iacute" unicode="&#xcd;" 
d="M386 3q-146 0 -249.5 104t-103.5 250t103.5 250t249.5 104t250 -104t104 -250t-104 -250t-250 -104zM386 51q127 0 216 90t89 216t-89 215.5t-216 89.5q-126 0 -216 -89.5t-90 -215.5t90 -216t216 -90zM386 72q-117 0 -201 83.5t-84 201.5q0 117 84 199.5t201 82.5
t200.5 -82.5t83.5 -199.5q0 -118 -83.5 -201.5t-200.5 -83.5zM386 116q53 0 93.5 32t66.5 75q-156 -41 -320 0q26 -43 66.5 -75t93.5 -32zM216 238q169 -39 341 0l54 86h-450zM349 357h76l-38 91zM294 427q3 -4 18.5 3.5t14.5 10.5q-7 14 -22 54t-27 58q-4 5 -19.5 -2.5
t-28 -18t-10.5 -13.5zM480 427l72 92q2 3 -10.5 13.5t-27.5 18t-19 2.5q-11 -14 -19 -33t-15 -42.5t-13 -36.5q-3 -2 9 -9q17 -10 23 -5zM645 12v38h-15v11h41v-11h-15v-38h-11zM676 12v49h15l9 -38l9 38h14v-49h-9v38l-10 -38h-9l-10 38v-38h-9z" />
    <glyph glyph-name="Icircumflex" unicode="&#xce;" 
d="M386 3q-146 0 -249.5 104t-103.5 250t103.5 250t249.5 104t250 -104t104 -250t-104 -250t-250 -104zM386 51q127 0 216 90t89 216t-89 215.5t-216 89.5q-126 0 -216 -89.5t-90 -215.5t90 -216t216 -90zM386 72q-117 0 -201 83.5t-84 201.5q0 117 84 199.5t201 82.5
t200.5 -82.5t83.5 -199.5q0 -118 -83.5 -201.5t-200.5 -83.5zM386 116q53 0 93.5 32t66.5 75q-156 -41 -320 0q26 -43 66.5 -75t93.5 -32zM216 238q169 -39 341 0l54 86h-450zM349 357h76l-38 91zM294 427q3 -4 18.5 3.5t14.5 10.5q-7 14 -22 54t-27 58q-4 5 -19.5 -2.5
t-28 -18t-10.5 -13.5zM480 427l72 92q2 3 -10.5 13.5t-27.5 18t-19 2.5q-11 -14 -19 -33t-15 -42.5t-13 -36.5q-3 -2 9 -9q17 -10 23 -5zM645 12v38h-15v11h41v-11h-15v-38h-11zM676 12v49h15l9 -38l9 38h14v-49h-9v38l-10 -38h-9l-10 38v-38h-9z" />
    <glyph glyph-name="Idieresis" unicode="&#xcf;" 
d="M386 3q-146 0 -249.5 104t-103.5 250t103.5 250t249.5 104t250 -104t104 -250t-104 -250t-250 -104zM386 51q127 0 216 90t89 216t-89 215.5t-216 89.5q-126 0 -216 -89.5t-90 -215.5t90 -216t216 -90zM386 72q-117 0 -201 83.5t-84 201.5q0 117 84 199.5t201 82.5
t200.5 -82.5t83.5 -199.5q0 -118 -83.5 -201.5t-200.5 -83.5zM386 116q53 0 93.5 32t66.5 75q-156 -41 -320 0q26 -43 66.5 -75t93.5 -32zM216 238q169 -39 341 0l54 86h-450zM349 357h76l-38 91zM294 427q3 -4 18.5 3.5t14.5 10.5q-7 14 -22 54t-27 58q-4 5 -19.5 -2.5
t-28 -18t-10.5 -13.5zM480 427l72 92q2 3 -10.5 13.5t-27.5 18t-19 2.5q-11 -14 -19 -33t-15 -42.5t-13 -36.5q-3 -2 9 -9q17 -10 23 -5zM645 12v38h-15v11h41v-11h-15v-38h-11zM676 12v49h15l9 -38l9 38h14v-49h-9v38l-10 -38h-9l-10 38v-38h-9z" />
    <glyph glyph-name="Eth" unicode="&#xd0;" 
d="M386 3q-146 0 -249.5 104t-103.5 250t103.5 250t249.5 104t250 -104t104 -250t-104 -250t-250 -104zM386 51q127 0 216 90t89 216t-89 215.5t-216 89.5q-126 0 -216 -89.5t-90 -215.5t90 -216t216 -90zM386 72q-117 0 -201 83.5t-84 201.5q0 117 84 199.5t201 82.5
t200.5 -82.5t83.5 -199.5q0 -118 -83.5 -201.5t-200.5 -83.5zM386 116q53 0 93.5 32t66.5 75q-156 -41 -320 0q26 -43 66.5 -75t93.5 -32zM216 238q169 -39 341 0l54 86h-450zM349 357h76l-38 91zM294 427q3 -4 18.5 3.5t14.5 10.5q-7 14 -22 54t-27 58q-4 5 -19.5 -2.5
t-28 -18t-10.5 -13.5zM480 427l72 92q2 3 -10.5 13.5t-27.5 18t-19 2.5q-11 -14 -19 -33t-15 -42.5t-13 -36.5q-3 -2 9 -9q17 -10 23 -5zM645 12v38h-15v11h41v-11h-15v-38h-11zM676 12v49h15l9 -38l9 38h14v-49h-9v38l-10 -38h-9l-10 38v-38h-9z" />
    <glyph glyph-name="Ntilde" unicode="&#xd1;" 
d="M386 3q-146 0 -249.5 104t-103.5 250t103.5 250t249.5 104t250 -104t104 -250t-104 -250t-250 -104zM386 51q127 0 216 90t89 216t-89 215.5t-216 89.5q-126 0 -216 -89.5t-90 -215.5t90 -216t216 -90zM386 72q-117 0 -201 83.5t-84 201.5q0 117 84 199.5t201 82.5
t200.5 -82.5t83.5 -199.5q0 -118 -83.5 -201.5t-200.5 -83.5zM386 116q53 0 93.5 32t66.5 75q-156 -41 -320 0q26 -43 66.5 -75t93.5 -32zM216 238q169 -39 341 0l54 86h-450zM349 357h76l-38 91zM294 427q3 -4 18.5 3.5t14.5 10.5q-7 14 -22 54t-27 58q-4 5 -19.5 -2.5
t-28 -18t-10.5 -13.5zM480 427l72 92q2 3 -10.5 13.5t-27.5 18t-19 2.5q-11 -14 -19 -33t-15 -42.5t-13 -36.5q-3 -2 9 -9q17 -10 23 -5zM645 12v38h-15v11h41v-11h-15v-38h-11zM676 12v49h15l9 -38l9 38h14v-49h-9v38l-10 -38h-9l-10 38v-38h-9z" />
    <glyph glyph-name="Ograve" unicode="&#xd2;" 
d="M386 3q-146 0 -249.5 104t-103.5 250t103.5 250t249.5 104t250 -104t104 -250t-104 -250t-250 -104zM386 51q127 0 216 90t89 216t-89 215.5t-216 89.5q-126 0 -216 -89.5t-90 -215.5t90 -216t216 -90zM386 72q-117 0 -201 83.5t-84 201.5q0 117 84 199.5t201 82.5
t200.5 -82.5t83.5 -199.5q0 -118 -83.5 -201.5t-200.5 -83.5zM386 116q53 0 93.5 32t66.5 75q-156 -41 -320 0q26 -43 66.5 -75t93.5 -32zM216 238q169 -39 341 0l54 86h-450zM349 357h76l-38 91zM294 427q3 -4 18.5 3.5t14.5 10.5q-7 14 -22 54t-27 58q-4 5 -19.5 -2.5
t-28 -18t-10.5 -13.5zM480 427l72 92q2 3 -10.5 13.5t-27.5 18t-19 2.5q-11 -14 -19 -33t-15 -42.5t-13 -36.5q-3 -2 9 -9q17 -10 23 -5zM645 12v38h-15v11h41v-11h-15v-38h-11zM676 12v49h15l9 -38l9 38h14v-49h-9v38l-10 -38h-9l-10 38v-38h-9z" />
    <glyph glyph-name="Oacute" unicode="&#xd3;" 
d="M386 3q-146 0 -249.5 104t-103.5 250t103.5 250t249.5 104t250 -104t104 -250t-104 -250t-250 -104zM386 51q127 0 216 90t89 216t-89 215.5t-216 89.5q-126 0 -216 -89.5t-90 -215.5t90 -216t216 -90zM386 72q-117 0 -201 83.5t-84 201.5q0 117 84 199.5t201 82.5
t200.5 -82.5t83.5 -199.5q0 -118 -83.5 -201.5t-200.5 -83.5zM386 116q53 0 93.5 32t66.5 75q-156 -41 -320 0q26 -43 66.5 -75t93.5 -32zM216 238q169 -39 341 0l54 86h-450zM349 357h76l-38 91zM294 427q3 -4 18.5 3.5t14.5 10.5q-7 14 -22 54t-27 58q-4 5 -19.5 -2.5
t-28 -18t-10.5 -13.5zM480 427l72 92q2 3 -10.5 13.5t-27.5 18t-19 2.5q-11 -14 -19 -33t-15 -42.5t-13 -36.5q-3 -2 9 -9q17 -10 23 -5zM645 12v38h-15v11h41v-11h-15v-38h-11zM676 12v49h15l9 -38l9 38h14v-49h-9v38l-10 -38h-9l-10 38v-38h-9z" />
    <glyph glyph-name="Ocircumflex" unicode="&#xd4;" 
d="M386 3q-146 0 -249.5 104t-103.5 250t103.5 250t249.5 104t250 -104t104 -250t-104 -250t-250 -104zM386 51q127 0 216 90t89 216t-89 215.5t-216 89.5q-126 0 -216 -89.5t-90 -215.5t90 -216t216 -90zM386 72q-117 0 -201 83.5t-84 201.5q0 117 84 199.5t201 82.5
t200.5 -82.5t83.5 -199.5q0 -118 -83.5 -201.5t-200.5 -83.5zM386 116q53 0 93.5 32t66.5 75q-156 -41 -320 0q26 -43 66.5 -75t93.5 -32zM216 238q169 -39 341 0l54 86h-450zM349 357h76l-38 91zM294 427q3 -4 18.5 3.5t14.5 10.5q-7 14 -22 54t-27 58q-4 5 -19.5 -2.5
t-28 -18t-10.5 -13.5zM480 427l72 92q2 3 -10.5 13.5t-27.5 18t-19 2.5q-11 -14 -19 -33t-15 -42.5t-13 -36.5q-3 -2 9 -9q17 -10 23 -5zM645 12v38h-15v11h41v-11h-15v-38h-11zM676 12v49h15l9 -38l9 38h14v-49h-9v38l-10 -38h-9l-10 38v-38h-9z" />
    <glyph glyph-name="Otilde" unicode="&#xd5;" 
d="M386 3q-146 0 -249.5 104t-103.5 250t103.5 250t249.5 104t250 -104t104 -250t-104 -250t-250 -104zM386 51q127 0 216 90t89 216t-89 215.5t-216 89.5q-126 0 -216 -89.5t-90 -215.5t90 -216t216 -90zM386 72q-117 0 -201 83.5t-84 201.5q0 117 84 199.5t201 82.5
t200.5 -82.5t83.5 -199.5q0 -118 -83.5 -201.5t-200.5 -83.5zM386 116q53 0 93.5 32t66.5 75q-156 -41 -320 0q26 -43 66.5 -75t93.5 -32zM216 238q169 -39 341 0l54 86h-450zM349 357h76l-38 91zM294 427q3 -4 18.5 3.5t14.5 10.5q-7 14 -22 54t-27 58q-4 5 -19.5 -2.5
t-28 -18t-10.5 -13.5zM480 427l72 92q2 3 -10.5 13.5t-27.5 18t-19 2.5q-11 -14 -19 -33t-15 -42.5t-13 -36.5q-3 -2 9 -9q17 -10 23 -5zM645 12v38h-15v11h41v-11h-15v-38h-11zM676 12v49h15l9 -38l9 38h14v-49h-9v38l-10 -38h-9l-10 38v-38h-9z" />
    <glyph glyph-name="Odieresis" unicode="&#xd6;" 
d="M386 3q-146 0 -249.5 104t-103.5 250t103.5 250t249.5 104t250 -104t104 -250t-104 -250t-250 -104zM386 51q127 0 216 90t89 216t-89 215.5t-216 89.5q-126 0 -216 -89.5t-90 -215.5t90 -216t216 -90zM386 72q-117 0 -201 83.5t-84 201.5q0 117 84 199.5t201 82.5
t200.5 -82.5t83.5 -199.5q0 -118 -83.5 -201.5t-200.5 -83.5zM386 116q53 0 93.5 32t66.5 75q-156 -41 -320 0q26 -43 66.5 -75t93.5 -32zM216 238q169 -39 341 0l54 86h-450zM349 357h76l-38 91zM294 427q3 -4 18.5 3.5t14.5 10.5q-7 14 -22 54t-27 58q-4 5 -19.5 -2.5
t-28 -18t-10.5 -13.5zM480 427l72 92q2 3 -10.5 13.5t-27.5 18t-19 2.5q-11 -14 -19 -33t-15 -42.5t-13 -36.5q-3 -2 9 -9q17 -10 23 -5zM645 12v38h-15v11h41v-11h-15v-38h-11zM676 12v49h15l9 -38l9 38h14v-49h-9v38l-10 -38h-9l-10 38v-38h-9z" />
    <glyph glyph-name="multiply" unicode="&#xd7;" 
d="M386 3q-146 0 -249.5 104t-103.5 250t103.5 250t249.5 104t250 -104t104 -250t-104 -250t-250 -104zM386 51q127 0 216 90t89 216t-89 215.5t-216 89.5q-126 0 -216 -89.5t-90 -215.5t90 -216t216 -90zM386 72q-117 0 -201 83.5t-84 201.5q0 117 84 199.5t201 82.5
t200.5 -82.5t83.5 -199.5q0 -118 -83.5 -201.5t-200.5 -83.5zM386 116q53 0 93.5 32t66.5 75q-156 -41 -320 0q26 -43 66.5 -75t93.5 -32zM216 238q169 -39 341 0l54 86h-450zM349 357h76l-38 91zM294 427q3 -4 18.5 3.5t14.5 10.5q-7 14 -22 54t-27 58q-4 5 -19.5 -2.5
t-28 -18t-10.5 -13.5zM480 427l72 92q2 3 -10.5 13.5t-27.5 18t-19 2.5q-11 -14 -19 -33t-15 -42.5t-13 -36.5q-3 -2 9 -9q17 -10 23 -5zM645 12v38h-15v11h41v-11h-15v-38h-11zM676 12v49h15l9 -38l9 38h14v-49h-9v38l-10 -38h-9l-10 38v-38h-9z" />
    <glyph glyph-name="Oslash" unicode="&#xd8;" 
d="M386 3q-146 0 -249.5 104t-103.5 250t103.5 250t249.5 104t250 -104t104 -250t-104 -250t-250 -104zM386 51q127 0 216 90t89 216t-89 215.5t-216 89.5q-126 0 -216 -89.5t-90 -215.5t90 -216t216 -90zM386 72q-117 0 -201 83.5t-84 201.5q0 117 84 199.5t201 82.5
t200.5 -82.5t83.5 -199.5q0 -118 -83.5 -201.5t-200.5 -83.5zM386 116q53 0 93.5 32t66.5 75q-156 -41 -320 0q26 -43 66.5 -75t93.5 -32zM216 238q169 -39 341 0l54 86h-450zM349 357h76l-38 91zM294 427q3 -4 18.5 3.5t14.5 10.5q-7 14 -22 54t-27 58q-4 5 -19.5 -2.5
t-28 -18t-10.5 -13.5zM480 427l72 92q2 3 -10.5 13.5t-27.5 18t-19 2.5q-11 -14 -19 -33t-15 -42.5t-13 -36.5q-3 -2 9 -9q17 -10 23 -5zM645 12v38h-15v11h41v-11h-15v-38h-11zM676 12v49h15l9 -38l9 38h14v-49h-9v38l-10 -38h-9l-10 38v-38h-9z" />
    <glyph glyph-name="Ugrave" unicode="&#xd9;" 
d="M386 3q-146 0 -249.5 104t-103.5 250t103.5 250t249.5 104t250 -104t104 -250t-104 -250t-250 -104zM386 51q127 0 216 90t89 216t-89 215.5t-216 89.5q-126 0 -216 -89.5t-90 -215.5t90 -216t216 -90zM386 72q-117 0 -201 83.5t-84 201.5q0 117 84 199.5t201 82.5
t200.5 -82.5t83.5 -199.5q0 -118 -83.5 -201.5t-200.5 -83.5zM386 116q53 0 93.5 32t66.5 75q-156 -41 -320 0q26 -43 66.5 -75t93.5 -32zM216 238q169 -39 341 0l54 86h-450zM349 357h76l-38 91zM294 427q3 -4 18.5 3.5t14.5 10.5q-7 14 -22 54t-27 58q-4 5 -19.5 -2.5
t-28 -18t-10.5 -13.5zM480 427l72 92q2 3 -10.5 13.5t-27.5 18t-19 2.5q-11 -14 -19 -33t-15 -42.5t-13 -36.5q-3 -2 9 -9q17 -10 23 -5zM645 12v38h-15v11h41v-11h-15v-38h-11zM676 12v49h15l9 -38l9 38h14v-49h-9v38l-10 -38h-9l-10 38v-38h-9z" />
    <glyph glyph-name="Uacute" unicode="&#xda;" 
d="M386 3q-146 0 -249.5 104t-103.5 250t103.5 250t249.5 104t250 -104t104 -250t-104 -250t-250 -104zM386 51q127 0 216 90t89 216t-89 215.5t-216 89.5q-126 0 -216 -89.5t-90 -215.5t90 -216t216 -90zM386 72q-117 0 -201 83.5t-84 201.5q0 117 84 199.5t201 82.5
t200.5 -82.5t83.5 -199.5q0 -118 -83.5 -201.5t-200.5 -83.5zM386 116q53 0 93.5 32t66.5 75q-156 -41 -320 0q26 -43 66.5 -75t93.5 -32zM216 238q169 -39 341 0l54 86h-450zM349 357h76l-38 91zM294 427q3 -4 18.5 3.5t14.5 10.5q-7 14 -22 54t-27 58q-4 5 -19.5 -2.5
t-28 -18t-10.5 -13.5zM480 427l72 92q2 3 -10.5 13.5t-27.5 18t-19 2.5q-11 -14 -19 -33t-15 -42.5t-13 -36.5q-3 -2 9 -9q17 -10 23 -5zM645 12v38h-15v11h41v-11h-15v-38h-11zM676 12v49h15l9 -38l9 38h14v-49h-9v38l-10 -38h-9l-10 38v-38h-9z" />
    <glyph glyph-name="Ucircumflex" unicode="&#xdb;" 
d="M386 3q-146 0 -249.5 104t-103.5 250t103.5 250t249.5 104t250 -104t104 -250t-104 -250t-250 -104zM386 51q127 0 216 90t89 216t-89 215.5t-216 89.5q-126 0 -216 -89.5t-90 -215.5t90 -216t216 -90zM386 72q-117 0 -201 83.5t-84 201.5q0 117 84 199.5t201 82.5
t200.5 -82.5t83.5 -199.5q0 -118 -83.5 -201.5t-200.5 -83.5zM386 116q53 0 93.5 32t66.5 75q-156 -41 -320 0q26 -43 66.5 -75t93.5 -32zM216 238q169 -39 341 0l54 86h-450zM349 357h76l-38 91zM294 427q3 -4 18.5 3.5t14.5 10.5q-7 14 -22 54t-27 58q-4 5 -19.5 -2.5
t-28 -18t-10.5 -13.5zM480 427l72 92q2 3 -10.5 13.5t-27.5 18t-19 2.5q-11 -14 -19 -33t-15 -42.5t-13 -36.5q-3 -2 9 -9q17 -10 23 -5zM645 12v38h-15v11h41v-11h-15v-38h-11zM676 12v49h15l9 -38l9 38h14v-49h-9v38l-10 -38h-9l-10 38v-38h-9z" />
    <glyph glyph-name="Udieresis" unicode="&#xdc;" 
d="M386 3q-146 0 -249.5 104t-103.5 250t103.5 250t249.5 104t250 -104t104 -250t-104 -250t-250 -104zM386 51q127 0 216 90t89 216t-89 215.5t-216 89.5q-126 0 -216 -89.5t-90 -215.5t90 -216t216 -90zM386 72q-117 0 -201 83.5t-84 201.5q0 117 84 199.5t201 82.5
t200.5 -82.5t83.5 -199.5q0 -118 -83.5 -201.5t-200.5 -83.5zM386 116q53 0 93.5 32t66.5 75q-156 -41 -320 0q26 -43 66.5 -75t93.5 -32zM216 238q169 -39 341 0l54 86h-450zM349 357h76l-38 91zM294 427q3 -4 18.5 3.5t14.5 10.5q-7 14 -22 54t-27 58q-4 5 -19.5 -2.5
t-28 -18t-10.5 -13.5zM480 427l72 92q2 3 -10.5 13.5t-27.5 18t-19 2.5q-11 -14 -19 -33t-15 -42.5t-13 -36.5q-3 -2 9 -9q17 -10 23 -5zM645 12v38h-15v11h41v-11h-15v-38h-11zM676 12v49h15l9 -38l9 38h14v-49h-9v38l-10 -38h-9l-10 38v-38h-9z" />
    <glyph glyph-name="Yacute" unicode="&#xdd;" horiz-adv-x="768" 
d="M537 841v-136q-132 -53 -214.5 -172.5t-82.5 -265.5q0 -96 37.5 -183.5t100.5 -151t150 -101t182 -37.5q100 0 188.5 39.5t156.5 110.5h163q-83 -128 -217.5 -203t-290.5 -75q-162 0 -300.5 81t-219 219.5t-80.5 300.5q0 199 120 357.5t307 216.5z" />
    <glyph glyph-name="Thorn" unicode="&#xde;" 
d="M386 3q-146 0 -249.5 104t-103.5 250t103.5 250t249.5 104t250 -104t104 -250t-104 -250t-250 -104zM386 51q127 0 216 90t89 216t-89 215.5t-216 89.5q-126 0 -216 -89.5t-90 -215.5t90 -216t216 -90zM386 72q-117 0 -201 83.5t-84 201.5q0 117 84 199.5t201 82.5
t200.5 -82.5t83.5 -199.5q0 -118 -83.5 -201.5t-200.5 -83.5zM386 116q53 0 93.5 32t66.5 75q-156 -41 -320 0q26 -43 66.5 -75t93.5 -32zM216 238q169 -39 341 0l54 86h-450zM349 357h76l-38 91zM294 427q3 -4 18.5 3.5t14.5 10.5q-7 14 -22 54t-27 58q-4 5 -19.5 -2.5
t-28 -18t-10.5 -13.5zM480 427l72 92q2 3 -10.5 13.5t-27.5 18t-19 2.5q-11 -14 -19 -33t-15 -42.5t-13 -36.5q-3 -2 9 -9q17 -10 23 -5zM645 12v38h-15v11h41v-11h-15v-38h-11zM676 12v49h15l9 -38l9 38h14v-49h-9v38l-10 -38h-9l-10 38v-38h-9z" />
    <glyph glyph-name="germandbls" unicode="&#xdf;" 
d="M386 3q-146 0 -249.5 104t-103.5 250t103.5 250t249.5 104t250 -104t104 -250t-104 -250t-250 -104zM386 51q127 0 216 90t89 216t-89 215.5t-216 89.5q-126 0 -216 -89.5t-90 -215.5t90 -216t216 -90zM386 72q-117 0 -201 83.5t-84 201.5q0 117 84 199.5t201 82.5
t200.5 -82.5t83.5 -199.5q0 -118 -83.5 -201.5t-200.5 -83.5zM386 116q53 0 93.5 32t66.5 75q-156 -41 -320 0q26 -43 66.5 -75t93.5 -32zM216 238q169 -39 341 0l54 86h-450zM349 357h76l-38 91zM294 427q3 -4 18.5 3.5t14.5 10.5q-7 14 -22 54t-27 58q-4 5 -19.5 -2.5
t-28 -18t-10.5 -13.5zM480 427l72 92q2 3 -10.5 13.5t-27.5 18t-19 2.5q-11 -14 -19 -33t-15 -42.5t-13 -36.5q-3 -2 9 -9q17 -10 23 -5zM645 12v38h-15v11h41v-11h-15v-38h-11zM676 12v49h15l9 -38l9 38h14v-49h-9v38l-10 -38h-9l-10 38v-38h-9z" />
    <glyph glyph-name="agrave" unicode="&#xe0;" horiz-adv-x="454" 
d="M335 240l58 332l-131 -332h73zM92 -182h-157l394 909h215l-99 -727h-150l23 131h-97z" />
    <glyph glyph-name="aacute" unicode="&#xe1;" horiz-adv-x="338" 
d="M-28 -182l267 909h291l-39 -131h-139l-47 -160h137l-38 -129h-137l-143 -489h-152z" />
    <glyph glyph-name="acircumflex" unicode="&#xe2;" horiz-adv-x="427" 
d="M616 727l-214 -727h-150l90 307h-76l-145 -489h-150l268 909h150l-85 -291h76l86 291h150z" />
    <glyph glyph-name="atilde" unicode="&#xe3;" horiz-adv-x="205" 
d="M394 727l-268 -909h-155l268 909h155z" />
    <glyph glyph-name="adieresis" unicode="&#xe4;" horiz-adv-x="424" 
d="M462 727h147l-91 -309q-19 -56 -86 -55q35 -2 46.5 -27.5t2.5 -57.5l-82 -278h-150l83 281q9 29 -18 29h-47l-146 -492h-150l268 909h150l-91 -310h45q27 0 36 28z" />
    <glyph glyph-name="aring" unicode="&#xe5;" horiz-adv-x="551" 
d="M328 177l-32 227l-174 -586h-151l268 909h150l26 -254l170 254h156l-215 -727h-151l119 404z" />
    <glyph glyph-name="ae" unicode="&#xe6;" horiz-adv-x="413" 
d="M-29 -182l268 909h129l5 -281l83 281h146l-214 -727h-121l-13 290l-141 -472h-142z" />
    <glyph glyph-name="ccedilla" unicode="&#xe7;" horiz-adv-x="412" 
d="M239 215l-117 -397h-151l268 909h267q47 0 64 -27.5t6 -65.5l-100 -341q-10 -35 -39 -55.5t-68 -25t-69 -3.5t-61 6zM271 325h54q13 0 19 5.5t11 22.5l67 227q8 30 -23 30h-44z" />
    <glyph glyph-name="egrave" unicode="&#xe8;" horiz-adv-x="425" 
d="M267 310l-145 -492h-151l268 909h275q46 0 64.5 -27t7.5 -65l-73 -247q-5 -18 -21.5 -30.5t-42.5 -12.5q20 -3 29 -22t0 -58l-78 -265h-151l84 285q8 25 -16 25h-50zM298 417h52q26 0 35 28l40 135q9 30 -23 30h-47z" />
    <glyph glyph-name="eacute" unicode="&#xe9;" horiz-adv-x="387" 
d="M232 727h352l-39 -131h-102l-226 -778h-151l231 778h-104z" />
    <glyph glyph-name="ecircumflex" unicode="&#xea;" horiz-adv-x="435" 
d="M620 727l-91 -309q-17 -56 -93 -55q35 -2 48.5 -26.5t3.5 -58.5l-82 -278h-152l84 284q7 26 -19 26h-23q-16 0 -22.5 -4t-10.5 -17l-140 -471h-152l138 467q10 35 30 56t63 23q-34 0 -46 21t-2 53l85 289h152l-84 -287q-4 -13 1.5 -18t18.5 -5h27q23 0 30 26l84 284h152z
" />
    <glyph glyph-name="edieresis" unicode="&#xeb;" horiz-adv-x="433" 
d="M211 227h-39q-39 0 -53.5 22.5t-2.5 62.5l123 415h151l-108 -363q-9 -28 15 -28h35q14 0 20 5t11 20l108 366h151l-125 -422q-11 -39 -34.5 -58.5t-66.5 -19.5h-43l-119 -409h-142z" />
    <glyph glyph-name="igrave" unicode="&#xec;" horiz-adv-x="365" 
d="M25 0l253 860h168l-77 -263h152l-44 -148h-152l-132 -449h-168zM655 1029l-42 -145h-408l92 145h358z" />
    <glyph glyph-name="iacute" unicode="&#xed;" horiz-adv-x="472" 
d="M587 517l-199 -145l26 89h-84l-137 -461h-168l303 1029h168l-128 -436h85l27 91zM376 333l216 159l-145 -492h-170zM605 535l-117 179l93 315h169z" />
    <glyph glyph-name="icircumflex" unicode="&#xee;" horiz-adv-x="470" 
d="M319 425l-126 -425h-168l125 425h169zM157 449l171 580h165l-142 -484h9l235 484h173l-251 -495q42 -4 55 -37t-2 -75l-125 -422h-169l121 408q7 20 1 30.5t-27 10.5h-214z" />
    <glyph glyph-name="idieresis" unicode="&#xef;" horiz-adv-x="717" 
d="M695 860l-253 -860h-168l253 860h168zM523 0l250 849q10 35 -28 35h-540l92 145h574q56 0 79.5 -33.5t8.5 -85.5l-268 -910h-168zM446 860l-253 -860h-168l253 860h168z" />
    <glyph glyph-name="eth" unicode="&#xf0;" horiz-adv-x="469" 
d="M274 0l250 849q10 35 -28 35h-291l92 145h325q56 0 79.5 -33.5t8.5 -85.5l-268 -910h-168zM446 860l-253 -860h-168l253 860h168z" />
    <glyph glyph-name="ntilde" unicode="&#xf1;" horiz-adv-x="468" 
d="M324 443h60q31 0 43 39l106 362q11 40 -27 40h-301l92 145h327q56 0 77.5 -33.5t6.5 -85.5l-145 -487q-6 -21 -13.5 -36.5t-22.5 -35t-41 -29.5t-61 -10l-139 1l-93 -313h-168l253 860h168z" />
    <glyph glyph-name="ograve" unicode="&#xf2;" horiz-adv-x="468" 
d="M356 552h60q32 0 43 39l74 253q11 40 -27 40h-301l92 145h327q56 0 77.5 -33.5t6.5 -85.5l-113 -378q-17 -60 -84 -60q23 -2 35 -17.5t11.5 -39.5t-8.5 -54l-107 -361h-168l116 392q8 30 -22 30h-50l-125 -422h-168l253 860h168z" />
    <glyph glyph-name="oacute" unicode="&#xf3;" horiz-adv-x="222" 
d="M280 860h169l-254 -860h-168zM604 884h-471l63 145h451z" />
    <glyph glyph-name="ocircumflex" unicode="&#xf4;" horiz-adv-x="474" 
d="M752 1029l-133 -454q-19 -62 -103 -61q39 -2 54 -29.5t4 -63.5l-125 -421h-169l126 428q8 27 -20 27h-25q-18 0 -25.5 -4.5t-11.5 -17.5l-129 -433h-170l127 429q11 38 33 60.5t70 24.5q-38 3 -51 25.5t-3 57.5l127 432h172l-127 -430q-4 -15 1.5 -20t19.5 -5h29
q27 0 34 28l125 427h170z" />
    <glyph glyph-name="otilde" unicode="&#xf5;" horiz-adv-x="473" 
d="M260 1029h171l23 -394l194 394h178l-533 -1029h-176l200 393z" />
    <glyph glyph-name="odieresis" unicode="&#xf6;" horiz-adv-x="450" 
d="M213 -182h-163l203 417l-36 492h149l13 -269l125 269h154z" />
    <glyph glyph-name="divide" unicode="&#xf7;" horiz-adv-x="429" 
d="M350 592l-47 -156h80l51 174h-61q-18 0 -23 -18zM404 0h-149l91 307h-80l-145 -489h-150l248 841q9 31 35 49.5t61 18.5h303z" />
    <glyph glyph-name="oslash" unicode="&#xf8;" horiz-adv-x="451" 
d="M494 727h155l-199 -341l-8 -386h-143l6 261l-224 -443h-155l306 576l-9 333h146l-1 -236z" />
    <glyph glyph-name="ugrave" unicode="&#xf9;" horiz-adv-x="473" 
d="M446 859l-78 -266h88l84 291h-61q-26 0 -33 -25zM448 0h-169l136 458h-87l-135 -458h-168l275 933q13 44 49.5 70t86.5 26h315z" />
    <glyph glyph-name="uacute" unicode="&#xfa;" horiz-adv-x="528" 
d="M805 1030l-270 -484l-14 -546h-157l14 376l-185 -376h-168l294 555l-10 475h162l-9 -343l175 343h168z" />
    <glyph glyph-name="ucircumflex" unicode="&#xfb;" horiz-adv-x="472" 
d="M750 1029l-303 -1029h-168l135 461h-84l-137 -461h-168l303 1029h168l-127 -436h84l129 436h168z" />
    <glyph glyph-name="udieresis" unicode="&#xfc;" horiz-adv-x="606" 
d="M375 251l-5 356l-178 -607h-167l303 1029h164l4 -360l217 360h171l-304 -1029h-168l179 607z" />
    <glyph glyph-name="yacute" unicode="&#xfd;" horiz-adv-x="473" 
d="M406 722l-213 -722h-168l304 1029h137l60 -203l60 203h166l-304 -1029h-166l173 585z" />
    <glyph glyph-name="thorn" unicode="&#xfe;" horiz-adv-x="539" 
d="M345 807h-20l-69 -466h89v466zM25 0l189 1029h300v-1029h-169v185h-119l-31 -185h-170z" />
    <glyph glyph-name="ydieresis" unicode="&#xff;" horiz-adv-x="524" 
d="M399 341l90 466h-24l-147 -466h81zM198 0h-173l375 1029h270l-171 -1029h-165l36 185h-107z" />
    <glyph glyph-name="OE" unicode="&#x152;" horiz-adv-x="450" 
d="M302 0h-163l114 235l-36 492h149l13 -269l125 269h154z" />
    <glyph glyph-name="oe" unicode="&#x153;" horiz-adv-x="960" 
d="M717 868l-47 -129q-178 -14 -304 -151t-126 -321q0 -96 37.5 -183.5t100.5 -151t150 -101t182 -37.5q100 0 188.5 39.5t156.5 110.5h163q-83 -128 -217.5 -203t-290.5 -75q-162 0 -300.5 81t-219 219.5t-80.5 300.5q0 166 84 306t223.5 218.5t299.5 76.5z" />
    <glyph glyph-name="Scaron" unicode="&#x160;" horiz-adv-x="219" 
d="M25 0v727h150l-10 -347l92 347h151l-214 -727h-169z" />
    <glyph glyph-name="scaron" unicode="&#x161;" horiz-adv-x="340" 
d="M85 0l150 727h149l-80 -355l158 355h158l-369 -727h-166z" />
    <glyph glyph-name="Ydieresis" unicode="&#x178;" horiz-adv-x="434" 
d="M25 1029h167l-11 -501l129 501h120l-16 -501l129 501h170l-304 -1029h-149l15 395l-112 -395h-138v1029z" />
    <glyph glyph-name="Zcaron" unicode="&#x17d;" 
d="M386 3q-146 0 -249.5 104t-103.5 250t103.5 250t249.5 104t250 -104t104 -250t-104 -250t-250 -104zM386 51q127 0 216 90t89 216t-89 215.5t-216 89.5q-126 0 -216 -89.5t-90 -215.5t90 -216t216 -90zM386 72q-117 0 -201 83.5t-84 201.5q0 117 84 199.5t201 82.5
t200.5 -82.5t83.5 -199.5q0 -118 -83.5 -201.5t-200.5 -83.5zM386 116q53 0 93.5 32t66.5 75q-156 -41 -320 0q26 -43 66.5 -75t93.5 -32zM216 238q169 -39 341 0l54 86h-450zM349 357h76l-38 91zM294 427q3 -4 18.5 3.5t14.5 10.5q-7 14 -22 54t-27 58q-4 5 -19.5 -2.5
t-28 -18t-10.5 -13.5zM480 427l72 92q2 3 -10.5 13.5t-27.5 18t-19 2.5q-11 -14 -19 -33t-15 -42.5t-13 -36.5q-3 -2 9 -9q17 -10 23 -5zM645 12v38h-15v11h41v-11h-15v-38h-11zM676 12v49h15l9 -38l9 38h14v-49h-9v38l-10 -38h-9l-10 38v-38h-9z" />
    <glyph glyph-name="zcaron" unicode="&#x17e;" horiz-adv-x="198" 
d="M25 0v1029h167l-14 -494l130 494h167l-302 -1029h-148z" />
    <glyph glyph-name="florin" unicode="&#x192;" horiz-adv-x="660" 
d="M635 200v-200h-165v24zM617 214l-147 -156v91h-243l-151 -331h-180l553 1211h186v-800l-165 177v275l-182 -400h182v90z" />
    <glyph glyph-name="circumflex" unicode="&#x2c6;" 
d="M386 3q-146 0 -249.5 104t-103.5 250t103.5 250t249.5 104t250 -104t104 -250t-104 -250t-250 -104zM386 51q127 0 216 90t89 216t-89 215.5t-216 89.5q-126 0 -216 -89.5t-90 -215.5t90 -216t216 -90zM386 72q-117 0 -201 83.5t-84 201.5q0 117 84 199.5t201 82.5
t200.5 -82.5t83.5 -199.5q0 -118 -83.5 -201.5t-200.5 -83.5zM386 116q53 0 93.5 32t66.5 75q-156 -41 -320 0q26 -43 66.5 -75t93.5 -32zM216 238q169 -39 341 0l54 86h-450zM349 357h76l-38 91zM294 427q3 -4 18.5 3.5t14.5 10.5q-7 14 -22 54t-27 58q-4 5 -19.5 -2.5
t-28 -18t-10.5 -13.5zM480 427l72 92q2 3 -10.5 13.5t-27.5 18t-19 2.5q-11 -14 -19 -33t-15 -42.5t-13 -36.5q-3 -2 9 -9q17 -10 23 -5zM645 12v38h-15v11h41v-11h-15v-38h-11zM676 12v49h15l9 -38l9 38h14v-49h-9v38l-10 -38h-9l-10 38v-38h-9z" />
    <glyph glyph-name="tilde" unicode="&#x2dc;" horiz-adv-x="975" 
d="M557 847l-27 -145q-129 -53 -209.5 -171.5t-80.5 -263.5q0 -96 37.5 -183.5t100.5 -151t150 -101t182 -37.5q100 0 188.5 39.5t156.5 110.5h163q-83 -128 -217.5 -203t-290.5 -75q-162 0 -300.5 81t-219 219.5t-80.5 300.5q0 207 126 367.5t321 212.5z" />
    <glyph glyph-name="endash" unicode="&#x2013;" horiz-adv-x="415" 
d="M25 727h149l-8 -347l91 347h116l-11 -347l91 347h151l-215 -727h-150l8 265l-79 -265h-143v727z" />
    <glyph glyph-name="emdash" unicode="&#x2014;" horiz-adv-x="610" 
d="M219 727h149l-31 -347l114 347h119l-37 -347l116 347h156l-272 -727h-150l27 265l-98 -265h-142z" />
    <glyph glyph-name="quoteleft" unicode="&#x2018;" horiz-adv-x="539" 
d="M345 807h-20l-69 -466h89v466zM-7 -182l221 1211h300v-1029h-169v185h-119l-63 -367h-170z" />
    <glyph glyph-name="quoteright" unicode="&#x2019;" 
d="M386 3q-146 0 -249.5 104t-103.5 250t103.5 250t249.5 104t250 -104t104 -250t-104 -250t-250 -104zM386 51q127 0 216 90t89 216t-89 215.5t-216 89.5q-126 0 -216 -89.5t-90 -215.5t90 -216t216 -90zM386 72q-117 0 -201 83.5t-84 201.5q0 117 84 199.5t201 82.5
t200.5 -82.5t83.5 -199.5q0 -118 -83.5 -201.5t-200.5 -83.5zM386 116q53 0 93.5 32t66.5 75q-156 -41 -320 0q26 -43 66.5 -75t93.5 -32zM216 238q169 -39 341 0l54 86h-450zM349 357h76l-38 91zM294 427q3 -4 18.5 3.5t14.5 10.5q-7 14 -22 54t-27 58q-4 5 -19.5 -2.5
t-28 -18t-10.5 -13.5zM480 427l72 92q2 3 -10.5 13.5t-27.5 18t-19 2.5q-11 -14 -19 -33t-15 -42.5t-13 -36.5q-3 -2 9 -9q17 -10 23 -5zM645 12v38h-15v11h41v-11h-15v-38h-11zM676 12v49h15l9 -38l9 38h14v-49h-9v38l-10 -38h-9l-10 38v-38h-9z" />
    <glyph glyph-name="quotesinglbase" unicode="&#x201a;" horiz-adv-x="459" 
d="M560 185l-24 -185h-168l3 21zM548 207l-174 -149l12 91h-233l-186 -331h-199l687 1211h213l-103 -805l-149 180l32 279l-216 -402h169l11 89z" />
    <glyph glyph-name="quotedblleft" unicode="&#x201c;" horiz-adv-x="524" 
d="M399 341l90 466h-24l-147 -466h81zM133 -182h-173l440 1211h270l-171 -1029h-165l36 185h-107z" />
    <glyph glyph-name="quotedblright" unicode="&#x201d;" 
d="M386 3q-146 0 -249.5 104t-103.5 250t103.5 250t249.5 104t250 -104t104 -250t-104 -250t-250 -104zM386 51q127 0 216 90t89 216t-89 215.5t-216 89.5q-126 0 -216 -89.5t-90 -215.5t90 -216t216 -90zM386 72q-117 0 -201 83.5t-84 201.5q0 117 84 199.5t201 82.5
t200.5 -82.5t83.5 -199.5q0 -118 -83.5 -201.5t-200.5 -83.5zM386 116q53 0 93.5 32t66.5 75q-156 -41 -320 0q26 -43 66.5 -75t93.5 -32zM216 238q169 -39 341 0l54 86h-450zM349 357h76l-38 91zM294 427q3 -4 18.5 3.5t14.5 10.5q-7 14 -22 54t-27 58q-4 5 -19.5 -2.5
t-28 -18t-10.5 -13.5zM480 427l72 92q2 3 -10.5 13.5t-27.5 18t-19 2.5q-11 -14 -19 -33t-15 -42.5t-13 -36.5q-3 -2 9 -9q17 -10 23 -5zM645 12v38h-15v11h41v-11h-15v-38h-11zM676 12v49h15l9 -38l9 38h14v-49h-9v38l-10 -38h-9l-10 38v-38h-9z" />
    <glyph glyph-name="quotedblbase" unicode="&#x201e;" horiz-adv-x="655" 
d="M460 0l46 149h-238l-240 -331h-199l895 1211h209l-303 -1029h-170zM544 281l127 419l-303 -419h176z" />
    <glyph glyph-name="dagger" unicode="&#x2020;" horiz-adv-x="660" 
d="M635 1029v-1029h-165v149h-243l-151 -331h-180l553 1211h186zM288 281h182v400z" />
    <glyph glyph-name="daggerdbl" unicode="&#x2021;" 
d="M386 3q-146 0 -249.5 104t-103.5 250t103.5 250t249.5 104t250 -104t104 -250t-104 -250t-250 -104zM386 51q127 0 216 90t89 216t-89 215.5t-216 89.5q-126 0 -216 -89.5t-90 -215.5t90 -216t216 -90zM386 72q-117 0 -201 83.5t-84 201.5q0 117 84 199.5t201 82.5
t200.5 -82.5t83.5 -199.5q0 -118 -83.5 -201.5t-200.5 -83.5zM386 116q53 0 93.5 32t66.5 75q-156 -41 -320 0q26 -43 66.5 -75t93.5 -32zM216 238q169 -39 341 0l54 86h-450zM349 357h76l-38 91zM294 427q3 -4 18.5 3.5t14.5 10.5q-7 14 -22 54t-27 58q-4 5 -19.5 -2.5
t-28 -18t-10.5 -13.5zM480 427l72 92q2 3 -10.5 13.5t-27.5 18t-19 2.5q-11 -14 -19 -33t-15 -42.5t-13 -36.5q-3 -2 9 -9q17 -10 23 -5zM645 12v38h-15v11h41v-11h-15v-38h-11zM676 12v49h15l9 -38l9 38h14v-49h-9v38l-10 -38h-9l-10 38v-38h-9z" />
    <glyph glyph-name="bullet" unicode="&#x2022;" horiz-adv-x="614" 
d="M414 620q106 0 181.5 -75t75.5 -182t-75.5 -182t-181.5 -75q-85 0 -153 51t-92 130h82q22 -46 66 -74.5t97 -28.5q75 0 128 52.5t53 126.5q0 75 -53 128t-128 53q-52 0 -95.5 -28t-65.5 -75h-84q26 79 93 129t152 50zM164 306q-7 28 -7 57q0 34 7 59h250v77l128 -136
l-128 -135v78h-250z" />
    <glyph glyph-name="ellipsis" unicode="&#x2026;" horiz-adv-x="561" 
d="M363 0l21 149h-231l-186 -331h-199l687 1211h213l-132 -1029h-173zM402 281l66 441l-236 -441h170z" />
    <glyph glyph-name="perthousand" unicode="&#x2030;" 
d="M386 3q-146 0 -249.5 104t-103.5 250t103.5 250t249.5 104t250 -104t104 -250t-104 -250t-250 -104zM386 51q127 0 216 90t89 216t-89 215.5t-216 89.5q-126 0 -216 -89.5t-90 -215.5t90 -216t216 -90zM386 72q-117 0 -201 83.5t-84 201.5q0 117 84 199.5t201 82.5
t200.5 -82.5t83.5 -199.5q0 -118 -83.5 -201.5t-200.5 -83.5zM386 116q53 0 93.5 32t66.5 75q-156 -41 -320 0q26 -43 66.5 -75t93.5 -32zM216 238q169 -39 341 0l54 86h-450zM349 357h76l-38 91zM294 427q3 -4 18.5 3.5t14.5 10.5q-7 14 -22 54t-27 58q-4 5 -19.5 -2.5
t-28 -18t-10.5 -13.5zM480 427l72 92q2 3 -10.5 13.5t-27.5 18t-19 2.5q-11 -14 -19 -33t-15 -42.5t-13 -36.5q-3 -2 9 -9q17 -10 23 -5zM645 12v38h-15v11h41v-11h-15v-38h-11zM676 12v49h15l9 -38l9 38h14v-49h-9v38l-10 -38h-9l-10 38v-38h-9z" />
    <glyph glyph-name="guilsinglleft" unicode="&#x2039;" horiz-adv-x="410" 
d="M170 0l49 727h151l-39 -350l119 350h155l-272 -727h-163z" />
    <glyph glyph-name="guilsinglright" unicode="&#x203a;" horiz-adv-x="537" 
d="M235 727h150l-81 -334l161 334h116l-81 -334l161 334h156l-371 -727h-146l62 265l-133 -265h-144z" />
    <glyph glyph-name="Euro" unicode="&#x20ac;" 
d="M386 3q-146 0 -249.5 104t-103.5 250t103.5 250t249.5 104t250 -104t104 -250t-104 -250t-250 -104zM386 51q127 0 216 90t89 216t-89 215.5t-216 89.5q-126 0 -216 -89.5t-90 -215.5t90 -216t216 -90zM386 72q-117 0 -201 83.5t-84 201.5q0 117 84 199.5t201 82.5
t200.5 -82.5t83.5 -199.5q0 -118 -83.5 -201.5t-200.5 -83.5zM386 116q53 0 93.5 32t66.5 75q-156 -41 -320 0q26 -43 66.5 -75t93.5 -32zM216 238q169 -39 341 0l54 86h-450zM349 357h76l-38 91zM294 427q3 -4 18.5 3.5t14.5 10.5q-7 14 -22 54t-27 58q-4 5 -19.5 -2.5
t-28 -18t-10.5 -13.5zM480 427l72 92q2 3 -10.5 13.5t-27.5 18t-19 2.5q-11 -14 -19 -33t-15 -42.5t-13 -36.5q-3 -2 9 -9q17 -10 23 -5zM645 12v38h-15v11h41v-11h-15v-38h-11zM676 12v49h15l9 -38l9 38h14v-49h-9v38l-10 -38h-9l-10 38v-38h-9z" />
    <glyph glyph-name="trademark" unicode="&#x2122;" horiz-adv-x="671" 
d="M259 727v-49h-84v-316h-60v316h-85v49h229zM486 370h-43l-86 252v-260h-60v365h81l87 -254l85 254h81v-365h-59v260z" />
    <glyph glyph-name="AVENGERS_old" unicode="&#xe001;" horiz-adv-x="3550" 
d="M2823 310l-91 -310h-151l214 727h270q47 0 66 -27.5t6 -64.5l-73 -247q-12 -43 -61 -43q20 -3 28.5 -22.5t-1.5 -58.5l-79 -264h-150l85 285q8 25 -15 25h-48zM926 0v727h149l-9 -341l89 341h149l-209 -727h-169zM1455 0l216 727h131l2 -250l74 250h150l-214 -727h-131
l-2 271l-80 -271h-146zM2855 417h46q26 0 35 28l42 135q8 30 -23 30h-44zM716 24l165 176v-200h-165v24zM863 214l-147 -156v91h-240l-151 -331h-183l553 1211h186v-800l-165 177v275l-181 -400h181v90zM2150 727h258l-39 -131h-164q-23 0 -29 -23l-124 -420q-10 -29 23 -29
h50l55 183h-31l38 129h171l-123 -411l-162 -82l16 57h-93q-57 0 -87 34t-10 101l154 524q12 39 35.5 53.5t61.5 14.5zM2263 0l216 727h273l-40 -131h-121l-47 -160h119l-40 -129h-118l-50 -169h135l-50 -138h-277zM3465 596h-130q-19 0 -27 -21l-41 -148h81q43 0 62.5 -25.5
t4.5 -76.5l-83 -282q-6 -21 -26 -32t-45 -11h-242l39 131h121q20 0 26.5 5t11.5 20l37 130q3 10 -7 10h-80q-88 0 -63 88l83 282q20 61 89 61h228zM1137 0l214 727h274l-39 -131h-122l-47 -160h119l-39 -129h-119l-50 -169h136l-52 -138h-275z" />
    <glyph glyph-name="AVENGERS_new" unicode="&#xe002;" horiz-adv-x="3550" 
d="M926 0v727h149l-9 -341l89 341h149l-209 -727h-169zM1455 0l216 727h131l2 -250l74 250h150l-214 -727h-131l-2 271l-80 -271h-146zM716 24l165 176v-200h-165v24zM863 214l-147 -156v91h-240l-151 -331h-183l553 1211h186v-800l-165 177v275l-181 -400h181v90zM2272 0
l216 727h273l-40 -131h-121l-47 -160h119l-40 -129h-118l-50 -169h135l-50 -138h-277zM1137 0l214 727h274l-39 -131h-122l-47 -160h119l-39 -129h-119l-50 -169h136l-52 -138h-275zM2378 596h-107q-17 0 -25 -8q-65 -70 -98 -123q-10 -16 -16 -37l-80 -271q-6 -22 -0.5 -29
t24.5 -7h48l55 186h-31l38 129h174l-120 -408l-168 -85l16 57h-99q-51 0 -80.5 35t-11.5 97l110 373q7 24 22 48q39 61 144 158q18 16 44 16h200zM2857 411h50q28 0 36 25l43 144q9 30 -22 30h-48zM2832 308l-93 -308h-149l214 727h271q46 0 63 -27.5t8 -61.5l-81 -276
q-16 -54 -88 -54l5 -308h-150v308zM3466 596h-125q-10 0 -13 -8q-8 -24 -6 -37l54 -340q7 -41 -5 -74l-33 -93q-16 -44 -75 -44h-223l42 138h108q16 0 21 14q11 36 4 71l-51 264q-6 29 4 86q8 44 28 98q19 56 102 56h211z" />
    <glyph glyph-name="MrSmiley" unicode="&#xf8ff;" 
d="M386 3q-146 0 -249.5 104t-103.5 250t103.5 250t249.5 104t250 -104t104 -250t-104 -250t-250 -104zM386 51q127 0 216 90t89 216t-89 215.5t-216 89.5q-126 0 -216 -89.5t-90 -215.5t90 -216t216 -90zM386 72q-117 0 -201 83.5t-84 201.5q0 117 84 199.5t201 82.5
t200.5 -82.5t83.5 -199.5q0 -118 -83.5 -201.5t-200.5 -83.5zM386 116q53 0 93.5 32t66.5 75q-156 -41 -320 0q26 -43 66.5 -75t93.5 -32zM216 238q169 -39 341 0l54 86h-450zM349 357h76l-38 91zM294 427q3 -4 18.5 3.5t14.5 10.5q-7 14 -22 54t-27 58q-4 5 -19.5 -2.5
t-28 -18t-10.5 -13.5zM480 427l72 92q2 3 -10.5 13.5t-27.5 18t-19 2.5q-11 -14 -19 -33t-15 -42.5t-13 -36.5q-3 -2 9 -9q17 -10 23 -5zM645 12v38h-15v11h41v-11h-15v-38h-11zM676 12v49h15l9 -38l9 38h14v-49h-9v38l-10 -38h-9l-10 38v-38h-9z" />
    <glyph glyph-name="CR" horiz-adv-x="125" 
 />
    </font>
</defs>
</svg>
